<?xml version="1.0" standalone="no"?>
 <!DOCTYPE svg PUBLIC "-//W3C//DTD SVG 1.1//EN" 
 "http://www.w3.org/Graphics/SVG/1.1/DTD/svg11.dtd"> 
<svg xmlns="http://www.w3.org/2000/svg" version="1.1" 
    width="29.7002cm" height="21.0007cm" viewBox="0 0 116930 82680 ">
<title>SVG Picture created as videoadc-B_Cu.svg date 2014/07/26 22:21:41 </title>
  <desc>Picture generated by PCBNEW </desc>
<g style="fill:#000000; fill-opacity:1;stroke:#000000; stroke-opacity:1;
stroke-linecap:round; stroke-linejoin:round; "
 transform="translate(0 0) scale(1 1)">
</g>
<g style="fill:#000000; fill-opacity:0.0; 
stroke:#000000; stroke-width:157.48; stroke-opacity:1; 
stroke-linecap:round; stroke-linejoin:round;">
<path d="M38027 31000
L38500 30842
" />
<path d="M38027 31000
L38500 31157
" />
<path d="M38000 27722
L37842 27250
" />
<path d="M38000 27722
L38157 27250
" />
</g>
<g style="fill:#000000; fill-opacity:0.0; 
stroke:#000000; stroke-width:78.7402; stroke-opacity:1; 
stroke-linecap:round; stroke-linejoin:round;">
<path d="M34750 37972
L34631 37500
" />
<path d="M34750 37972
L34868 37500
" />
<path d="M34750 37972
L34553 37500
" />
<path d="M34750 37972
L34946 37500
" />
<path d="M30222 39000
L29750 39118
" />
<path d="M30222 39000
L29750 38881
" />
<path d="M30222 39000
L29750 39196
" />
<path d="M30222 39000
L29750 38803
" />
<path d="M32600 38627
L32718 39100
" />
<path d="M32600 38627
L32481 39100
" />
<path d="M32600 38627
L32796 39100
" />
<path d="M32600 38627
L32403 39100
" />
</g>
<g style="fill:#000000; fill-opacity:0.0; 
stroke:#000000; stroke-width:39.3701; stroke-opacity:1; 
stroke-linecap:round; stroke-linejoin:round;">
<path d="M52500 45000
L52500 44500
" />
<path d="M28500 45000
L52500 45000
" />
<path d="M28500 44500
L28500 45000
" />
<path d="M28500 23000
L28500 23500
" />
<path d="M52500 23000
L28500 23000
" />
<path d="M52500 44500
L52500 23000
" />
<path d="M28500 23500
L28500 44500
" />
</g>
<g style="fill:#000000; fill-opacity:1.0; 
stroke:#000000; stroke-width:39.3701; stroke-opacity:1; 
stroke-linecap:round; stroke-linejoin:round;">
<polyline style="fill-rule:evenodd;"
points="49320,36820
48679,36820
48679,36179
49320,36179
49320,36820
" /> 
</g>
<g style="fill:#000000; fill-opacity:1.0; 
stroke:#000000; stroke-width:680; stroke-opacity:1; 
stroke-linecap:round; stroke-linejoin:round;">
</g>
<g style="fill:#000000; fill-opacity:0.0; 
stroke:#000000; stroke-width:680; stroke-opacity:1; 
stroke-linecap:round; stroke-linejoin:round;">
<path d="M48000 36500
L48000 36500
" />
<path d="M49000 35500
L49000 35500
" />
<path d="M48000 35500
L48000 35500
" />
<path d="M49000 34500
L49000 34500
" />
<path d="M48000 34500
L48000 34500
" />
<path d="M49000 33500
L49000 33500
" />
<path d="M48000 33500
L48000 33500
" />
</g>
<g style="fill:#000000; fill-opacity:0.0; 
stroke:#000000; stroke-width:39.3701; stroke-opacity:1; 
stroke-linecap:round; stroke-linejoin:round;">
</g>
<g style="fill:#000000; fill-opacity:1.0; 
stroke:#000000; stroke-width:39.3701; stroke-opacity:1; 
stroke-linecap:round; stroke-linejoin:round;">
<polyline style="fill-rule:evenodd;"
points="30179,24179
30820,24179
30820,24820
30179,24820
30179,24179
" /> 
</g>
<g style="fill:#000000; fill-opacity:1.0; 
stroke:#000000; stroke-width:708.661; stroke-opacity:1; 
stroke-linecap:round; stroke-linejoin:round;">
</g>
<g style="fill:#000000; fill-opacity:0.0; 
stroke:#000000; stroke-width:708.661; stroke-opacity:1; 
stroke-linecap:round; stroke-linejoin:round;">
<path d="M31500 24500
L31500 24500
" />
<path d="M30500 25500
L30500 25500
" />
<path d="M31500 25500
L31500 25500
" />
<path d="M30500 26500
L30500 26500
" />
<path d="M31500 26500
L31500 26500
" />
<path d="M30500 27500
L30500 27500
" />
<path d="M31500 27500
L31500 27500
" />
<path d="M30500 28500
L30500 28500
" />
<path d="M31500 28500
L31500 28500
" />
<path d="M30500 29500
L30500 29500
" />
<path d="M31500 29500
L31500 29500
" />
<path d="M30500 30500
L30500 30500
" />
<path d="M31500 30500
L31500 30500
" />
<path d="M30500 31500
L30500 31500
" />
<path d="M31500 31500
L31500 31500
" />
<path d="M30500 32500
L30500 32500
" />
<path d="M31500 32500
L31500 32500
" />
<path d="M30500 33500
L30500 33500
" />
<path d="M31500 33500
L31500 33500
" />
<path d="M30500 34500
L30500 34500
" />
<path d="M31500 34500
L31500 34500
" />
<path d="M30500 35500
L30500 35500
" />
<path d="M31500 35500
L31500 35500
" />
<path d="M30500 36500
L30500 36500
" />
<path d="M31500 36500
L31500 36500
" />
<path d="M30500 37500
L30500 37500
" />
<path d="M31500 37500
L31500 37500
" />
<path d="M30500 38500
L30500 38500
" />
<path d="M31500 38500
L31500 38500
" />
<path d="M30500 39500
L30500 39500
" />
<path d="M31500 39500
L31500 39500
" />
<path d="M30500 40500
L30500 40500
" />
<path d="M31500 40500
L31500 40500
" />
<path d="M30500 41500
L30500 41500
" />
<path d="M31500 41500
L31500 41500
" />
<path d="M30500 42500
L30500 42500
" />
<path d="M31500 42500
L31500 42500
" />
<path d="M30500 43500
L30500 43500
" />
<path d="M31500 43500
L31500 43500
" />
</g>
<g style="fill:#000000; fill-opacity:0.0; 
stroke:#000000; stroke-width:39.3701; stroke-opacity:1; 
stroke-linecap:round; stroke-linejoin:round;">
</g>
<g style="fill:#000000; fill-opacity:1.0; 
stroke:#000000; stroke-width:39.3701; stroke-opacity:1; 
stroke-linecap:round; stroke-linejoin:round;">
<circle cx="29500" cy="24500" r="205.315" /> 
<circle cx="32500" cy="24500" r="205.315" /> 
<circle cx="29500" cy="25500" r="205.315" /> 
<circle cx="32500" cy="25500" r="205.315" /> 
<circle cx="29500" cy="26500" r="205.315" /> 
<circle cx="32500" cy="26500" r="205.315" /> 
<circle cx="29500" cy="27500" r="205.315" /> 
<circle cx="32500" cy="27500" r="205.315" /> 
<circle cx="29500" cy="28500" r="205.315" /> 
<circle cx="32500" cy="28500" r="205.315" /> 
<circle cx="29500" cy="30500" r="205.315" /> 
<circle cx="32500" cy="30500" r="205.315" /> 
<circle cx="29500" cy="31500" r="205.315" /> 
<circle cx="32500" cy="33500" r="205.315" /> 
<circle cx="29500" cy="34500" r="205.315" /> 
<circle cx="32500" cy="34500" r="205.315" /> 
<circle cx="29500" cy="35500" r="205.315" /> 
<circle cx="32500" cy="35500" r="205.315" /> 
<circle cx="29500" cy="36500" r="205.315" /> 
<circle cx="32500" cy="36500" r="205.315" /> 
<circle cx="29500" cy="37500" r="205.315" /> 
<circle cx="40500" cy="30600" r="216.535" /> 
<circle cx="33120.3" cy="43120.3" r="216.535" /> 
<circle cx="40250" cy="35250" r="216.535" /> 
<circle cx="40250" cy="39500" r="216.535" /> 
<circle cx="42000" cy="43500" r="216.535" /> 
<circle cx="44500" cy="44000" r="216.535" /> 
<circle cx="44500" cy="30500" r="216.535" /> 
<circle cx="44600" cy="35000" r="216.535" /> 
<circle cx="44350" cy="39500" r="216.535" /> 
<circle cx="32500" cy="42000" r="216.535" /> 
<circle cx="34000" cy="27750" r="216.535" /> 
<circle cx="33750" cy="37250" r="216.535" /> 
<circle cx="33250" cy="31500" r="216.535" /> 
<circle cx="33250" cy="34250" r="216.535" /> 
<circle cx="32500" cy="29500" r="216.535" /> 
<circle cx="33350" cy="36300" r="216.535" /> 
<circle cx="32600" cy="39100" r="216.535" /> 
<circle cx="38500" cy="25250" r="216.535" /> 
<circle cx="35450" cy="30200" r="216.535" /> 
<circle cx="29750" cy="39000" r="216.535" /> 
<circle cx="35450" cy="32800" r="216.535" /> 
<circle cx="32196.9" cy="40966" r="216.535" /> 
<circle cx="35550" cy="34500" r="216.535" /> 
<circle cx="29750" cy="42250" r="216.535" /> 
<circle cx="31000" cy="44250" r="216.535" /> 
<circle cx="34750" cy="37500" r="216.535" /> 
<circle cx="38500" cy="40000" r="216.535" /> 
<circle cx="38000" cy="27250" r="216.535" /> 
<circle cx="38500" cy="35500" r="216.535" /> 
<circle cx="38500" cy="31000" r="216.535" /> 
</g>
<g style="fill:#000000; fill-opacity:1.0; 
stroke:#000000; stroke-width:78.7402; stroke-opacity:1; 
stroke-linecap:round; stroke-linejoin:round;">
</g>
<g style="fill:#000000; fill-opacity:0.0; 
stroke:#000000; stroke-width:78.7402; stroke-opacity:1; 
stroke-linecap:round; stroke-linejoin:round;">
<path d="M33350 36634
L32600 37384
" />
<path d="M32600 37384
L32600 39100
" />
<path d="M33350 36300
L33350 36634
" />
<path d="M32600 39100
L32600 39434
" />
<path d="M32600 39434
L32600 40550
" />
<path d="M35115 30200
L35450 30200
" />
<path d="M31709 39000
L31979 38730
" />
<path d="M31979 38730
L31979 33336
" />
<path d="M29750 39000
L31709 39000
" />
<path d="M31979 33336
L35115 30200
" />
</g>
<g style="fill:#000000; fill-opacity:0.0; 
stroke:#000000; stroke-width:157.48; stroke-opacity:1; 
stroke-linecap:round; stroke-linejoin:round;">
<path d="M35213 33036
L35450 32800
" />
<path d="M32196 40966
L32196 40631
" />
</g>
<g style="fill:#000000; fill-opacity:0.0; 
stroke:#000000; stroke-width:78.7402; stroke-opacity:1; 
stroke-linecap:round; stroke-linejoin:round;">
<path d="M32950 35300
L35213 33036
" />
<path d="M32950 36781
L32950 35300
" />
<path d="M32174 37556
L32950 36781
" />
<path d="M32174 40609
L32174 37556
" />
<path d="M32196 40631
L32174 40609
" />
<path d="M29986 42013
L31680 42013
" />
</g>
<g style="fill:#000000; fill-opacity:0.0; 
stroke:#000000; stroke-width:157.48; stroke-opacity:1; 
stroke-linecap:round; stroke-linejoin:round;">
<path d="M35550 34834
L35550 34500
" />
</g>
<g style="fill:#000000; fill-opacity:0.0; 
stroke:#000000; stroke-width:78.7402; stroke-opacity:1; 
stroke-linecap:round; stroke-linejoin:round;">
<path d="M31680 42013
L32975 40718
" />
<path d="M32975 40718
L32975 37408
" />
</g>
<g style="fill:#000000; fill-opacity:0.0; 
stroke:#000000; stroke-width:157.48; stroke-opacity:1; 
stroke-linecap:round; stroke-linejoin:round;">
<path d="M29750 42250
L29986 42013
" />
</g>
<g style="fill:#000000; fill-opacity:0.0; 
stroke:#000000; stroke-width:78.7402; stroke-opacity:1; 
stroke-linecap:round; stroke-linejoin:round;">
<path d="M32975 37408
L35550 34834
" />
</g>
<g style="fill:#000000; fill-opacity:0.0; 
stroke:#000000; stroke-width:157.48; stroke-opacity:1; 
stroke-linecap:round; stroke-linejoin:round;">
<path d="M31000 44250
L31459 44250
" />
</g>
<g style="fill:#000000; fill-opacity:0.0; 
stroke:#000000; stroke-width:78.7402; stroke-opacity:1; 
stroke-linecap:round; stroke-linejoin:round;">
<path d="M31459 44250
L34750 40959
" />
<path d="M34750 40959
L34750 37500
" />
</g>
<g style="fill:#000000; fill-opacity:0.0; 
stroke:#000000; stroke-width:157.48; stroke-opacity:1; 
stroke-linecap:round; stroke-linejoin:round;">
<path d="M38263 39763
L38500 40000
" />
<path d="M38000 39500
L38263 39763
" />
<path d="M38000 35451
L38000 39500
" />
</g>
<g style="fill:#000000; fill-opacity:0.0; 
stroke:#000000; stroke-width:78.7402; stroke-opacity:1; 
stroke-linecap:round; stroke-linejoin:round;">
<path d="M38048 35500
L38000 35451
" />
</g>
<g style="fill:#000000; fill-opacity:0.0; 
stroke:#000000; stroke-width:157.48; stroke-opacity:1; 
stroke-linecap:round; stroke-linejoin:round;">
<path d="M38500 35500
L38048 35500
" />
</g>
<g style="fill:#000000; fill-opacity:0.0; 
stroke:#000000; stroke-width:78.7402; stroke-opacity:1; 
stroke-linecap:round; stroke-linejoin:round;">
<path d="M38011 31000
L38000 30988
" />
</g>
<g style="fill:#000000; fill-opacity:0.0; 
stroke:#000000; stroke-width:157.48; stroke-opacity:1; 
stroke-linecap:round; stroke-linejoin:round;">
<path d="M38500 31000
L38011 31000
" />
<path d="M38000 30988
L38000 35451
" />
<path d="M38000 27250
L38000 30988
" />
</g>
<g style="fill:#000000; fill-opacity:1.0; 
stroke:#000000; stroke-width:39.3701; stroke-opacity:1; 
stroke-linecap:round; stroke-linejoin:round;">
<polyline style="fill-rule:evenodd;"
points="31588,38580
31580,38580
31580,38588
31419,38588
31419,38580
31411,38580
31411,38419
31419,38419
31419,38411
31580,38411
31580,38419
31588,38419
31588,38580
" /> 
<polyline style="fill-rule:evenodd;"
points="32719,40612
32593,40739
32580,40709
32489,40618
32469,40518
32430,40460
32430,39350
32437,39349
32519,39353
32600,39324
32680,39353
32719,39351
32719,40612
" /> 
<polyline style="fill-rule:evenodd;"
points="52263,44763
49559,44763
49559,36883
49559,36635
49559,36364
49559,36116
49526,36035
49464,35973
49383,35940
49328,35940
49430,35857
49534,35665
49534,35334
49430,35142
49260,35004
49249,35000
49260,34995
49430,34857
49534,34665
49534,34334
49430,34142
49260,34004
49249,34000
49260,33995
49430,33857
49534,33665
49534,33334
49430,33142
49260,33004
49165,32965
49080,33001
49080,33419
49498,33419
49534,33334
49534,33665
49498,33580
49080,33580
49080,33998
49084,34000
49080,34001
49080,34419
49498,34419
49534,34334
49534,34665
49498,34580
49080,34580
49080,34998
49084,35000
49080,35001
49080,35419
49498,35419
49534,35334
49534,35665
49498,35580
49080,35580
49080,35995
49080,35998
49080,36419
49504,36419
49559,36364
49559,36635
49504,36580
49080,36580
49080,37004
49135,37059
49296,37059
49383,37059
49464,37026
49526,36964
49559,36883
49559,44763
48919,44763
48919,37004
48919,36580
48911,36580
48911,36419
48919,36419
48919,35998
48919,35995
48919,35580
48911,35580
48911,35419
48919,35419
48919,35001
48915,35000
48919,34998
48919,34580
48911,34580
48911,34419
48919,34419
48919,34001
48915,34000
48919,33998
48919,33580
48911,33580
48911,33419
48919,33419
48919,33001
48834,32965
48739,33004
48569,33142
48504,33261
48393,33095
48212,32974
48000,32932
47787,32974
47606,33095
47485,33276
47443,33489
47443,33510
47485,33723
47606,33904
47749,34000
47606,34095
47485,34276
47443,34489
47443,34510
47485,34723
47606,34904
47749,35000
47606,35095
47485,35276
47443,35489
47443,35510
47485,35723
47606,35904
47749,36000
47606,36095
47485,36276
47443,36489
47443,36510
47485,36723
47606,36904
47787,37025
48000,37067
48212,37025
48393,36904
48440,36834
48440,36883
48473,36964
48535,37026
48616,37059
48703,37059
48864,37059
48919,37004
48919,44763
38952,44763
38952,39910
38884,39743
38756,39616
38590,39547
38464,39547
38295,39377
38295,35905
38409,35952
38589,35952
38756,35884
38883,35756
38952,35590
38952,35410
38884,35243
38756,35116
38590,35047
38410,35047
38295,35094
38295,31405
38409,31452
38589,31452
38756,31384
38883,31256
38952,31090
38952,30910
38884,30743
38756,30616
38590,30547
38410,30547
38295,30594
38295,27770
38382,27507
38383,27506
38452,27340
38452,27160
38384,26993
38256,26866
38090,26797
37910,26797
37743,26865
37616,26993
37547,27159
37547,27339
37615,27506
37617,27507
37704,27770
37704,30988
37704,35451
37704,39500
37727,39612
37791,39708
38047,39964
38047,40089
38115,40256
38243,40383
38409,40452
38589,40452
38756,40384
38883,40256
38952,40090
38952,39910
38952,44763
36002,44763
36002,34410
35934,34243
35806,34116
35640,34047
35460,34047
35293,34115
35166,34243
35097,34409
35097,34589
35165,34756
35215,34806
33197,36824
33205,36781
33205,36781
33205,35405
35296,33314
35326,33309
35411,33252
35539,33252
35706,33184
35833,33056
35902,32890
35902,32710
35834,32543
35706,32416
35540,32347
35360,32347
35193,32415
35066,32543
34997,32709
34997,32839
34940,32923
34935,32953
32769,35119
32758,35134
32750,35125
32588,35058
32412,35058
32250,35125
32235,35140
32235,34859
32249,34874
32411,34941
32587,34941
32749,34874
32874,34750
32941,34588
32941,34412
32874,34250
32750,34125
32588,34058
32412,34058
32250,34125
32235,34140
32235,33859
32249,33874
32411,33941
32587,33941
32749,33874
32874,33750
32941,33588
32941,33412
32874,33250
32750,33125
32610,33067
35143,30534
35193,30583
35359,30652
35539,30652
35706,30584
35833,30456
35902,30290
35902,30110
35834,29943
35706,29816
35540,29747
35360,29747
35193,29815
35066,29943
35061,29954
35034,29960
35018,29963
34934,30019
31882,33071
31776,33000
31903,32914
32027,32729
32070,32511
32070,32488
32027,32270
31903,32085
31776,32000
31903,31914
32027,31729
32070,31511
32070,31488
32027,31270
31903,31085
31776,31000
31903,30914
32027,30729
32058,30573
32058,30587
32125,30749
32249,30874
32411,30941
32587,30941
32749,30874
32874,30750
32941,30588
32941,30412
32874,30250
32750,30125
32588,30058
32412,30058
32250,30125
32125,30249
32058,30411
32058,30426
32027,30270
31903,30085
31777,30000
31942,29865
32048,29668
32013,29580
31580,29580
31580,29588
31419,29588
31419,29580
31411,29580
31411,29419
31419,29419
31419,29411
31580,29411
31580,29419
32013,29419
32048,29331
31942,29134
31777,28999
31903,28914
32027,28729
32058,28573
32058,28587
32125,28749
32249,28874
32411,28941
32587,28941
32749,28874
32874,28750
32941,28588
32941,28412
32874,28250
32750,28125
32588,28058
32412,28058
32250,28125
32125,28249
32058,28411
32058,28426
32027,28270
31903,28085
31776,28000
31903,27914
32027,27729
32058,27573
32058,27587
32125,27749
32249,27874
32411,27941
32587,27941
32749,27874
32874,27750
32941,27588
32941,27412
32874,27250
32750,27125
32588,27058
32412,27058
32250,27125
32125,27249
32058,27411
32058,27426
32027,27270
31903,27085
31776,27000
31903,26914
32027,26729
32058,26573
32058,26587
32125,26749
32249,26874
32411,26941
32587,26941
32749,26874
32874,26750
32941,26588
32941,26412
32874,26250
32750,26125
32588,26058
32412,26058
32250,26125
32125,26249
32058,26411
32058,26426
32027,26270
31903,26085
31776,26000
31903,25914
32027,25729
32058,25573
32058,25587
32125,25749
32249,25874
32411,25941
32587,25941
32749,25874
32874,25750
32941,25588
32941,25412
32874,25250
32750,25125
32588,25058
32412,25058
32250,25125
32125,25249
32058,25411
32058,25426
32027,25270
31903,25085
31776,25000
31903,24914
32027,24729
32058,24573
32058,24587
32125,24749
32249,24874
32411,24941
32587,24941
32749,24874
32874,24750
32941,24588
32941,24412
32874,24250
32750,24125
32588,24058
32412,24058
32250,24125
32125,24249
32058,24411
32058,24426
32027,24270
31903,24085
31718,23961
31500,23917
31281,23961
31096,24085
31056,24144
31056,24116
31023,24037
30962,23976
30883,23943
30796,23943
30116,23943
30037,23976
29976,24037
29943,24116
29943,24203
29943,24883
29976,24962
30037,25023
30116,25056
30139,25056
30096,25085
29972,25270
29941,25426
29941,25412
29941,24412
29874,24250
29750,24125
29588,24058
29412,24058
29250,24125
29125,24249
29058,24411
29058,24587
29125,24749
29249,24874
29411,24941
29587,24941
29749,24874
29874,24750
29941,24588
29941,24412
29941,25412
29874,25250
29750,25125
29588,25058
29412,25058
29250,25125
29125,25249
29058,25411
29058,25587
29125,25749
29249,25874
29411,25941
29587,25941
29749,25874
29874,25750
29941,25588
29941,25573
29972,25729
30096,25914
30223,26000
30096,26085
29972,26270
29941,26426
29941,26412
29874,26250
29750,26125
29588,26058
29412,26058
29250,26125
29125,26249
29058,26411
29058,26587
29125,26749
29249,26874
29411,26941
29587,26941
29749,26874
29874,26750
29941,26588
29941,26573
29972,26729
30096,26914
30223,27000
30096,27085
29972,27270
29941,27426
29941,27412
29874,27250
29750,27125
29588,27058
29412,27058
29250,27125
29125,27249
29058,27411
29058,27587
29125,27749
29249,27874
29411,27941
29587,27941
29749,27874
29874,27750
29941,27588
29941,27573
29972,27729
30096,27914
30223,28000
30096,28085
29972,28270
29941,28426
29941,28412
29874,28250
29750,28125
29588,28058
29412,28058
29250,28125
29125,28249
29058,28411
29058,28587
29125,28749
29249,28874
29411,28941
29587,28941
29749,28874
29874,28750
29941,28588
29941,28573
29972,28729
30096,28914
30223,29000
30096,29085
29972,29270
29929,29488
29929,29511
29972,29729
30096,29914
30223,30000
30096,30085
29972,30270
29941,30426
29941,30412
29874,30250
29750,30125
29588,30058
29412,30058
29250,30125
29125,30249
29058,30411
29058,30587
29125,30749
29249,30874
29411,30941
29587,30941
29749,30874
29874,30750
29941,30588
29941,30573
29972,30729
30096,30914
30223,31000
30096,31085
29972,31270
29941,31426
29941,31412
29874,31250
29750,31125
29588,31058
29412,31058
29250,31125
29125,31249
29058,31411
29058,31587
29125,31749
29249,31874
29411,31941
29587,31941
29749,31874
29874,31750
29941,31588
29941,31573
29972,31729
30096,31914
30223,32000
30096,32085
29972,32270
29929,32488
29929,32511
29972,32729
30096,32914
30223,33000
30096,33085
29972,33270
29929,33488
29929,33511
29972,33729
30096,33914
30223,34000
30096,34085
29972,34270
29941,34426
29941,34412
29874,34250
29750,34125
29588,34058
29412,34058
29250,34125
29125,34249
29058,34411
29058,34587
29125,34749
29249,34874
29411,34941
29587,34941
29749,34874
29874,34750
29941,34588
29941,34573
29972,34729
30096,34914
30223,35000
30096,35085
29972,35270
29941,35426
29941,35412
29874,35250
29750,35125
29588,35058
29412,35058
29250,35125
29125,35249
29058,35411
29058,35587
29125,35749
29249,35874
29411,35941
29587,35941
29749,35874
29874,35750
29941,35588
29941,35573
29972,35729
30096,35914
30223,36000
30096,36085
29972,36270
29941,36426
29941,36412
29874,36250
29750,36125
29588,36058
29412,36058
29250,36125
29125,36249
29058,36411
29058,36587
29125,36749
29249,36874
29411,36941
29587,36941
29749,36874
29874,36750
29941,36588
29941,36573
29972,36729
30096,36914
30223,37000
30096,37085
29972,37270
29941,37426
29941,37412
29874,37250
29750,37125
29588,37058
29412,37058
29250,37125
29125,37249
29058,37411
29058,37587
29125,37749
29249,37874
29411,37941
29587,37941
29749,37874
29874,37750
29941,37588
29941,37573
29972,37729
30096,37914
30223,38000
30096,38085
29972,38270
29929,38488
29929,38511
29944,38590
29840,38547
29660,38547
29493,38615
29366,38743
29297,38909
29297,39089
29365,39256
29493,39383
29659,39452
29839,39452
29944,39409
29929,39488
29929,39511
29972,39729
30096,39914
30223,40000
30096,40085
29972,40270
29929,40488
29929,40511
29972,40729
30096,40914
30223,41000
30096,41085
29972,41270
29929,41488
29929,41511
29970,41721
29873,41740
29788,41797
29660,41797
29493,41865
29366,41993
29297,42159
29297,42339
29365,42506
29493,42633
29659,42702
29839,42702
29957,42654
29972,42729
30096,42914
30223,43000
30096,43085
29972,43270
29929,43488
29929,43511
29972,43729
30096,43914
30281,44038
30500,44082
30586,44064
30547,44159
30547,44339
30615,44506
30743,44633
30909,44702
31089,44702
31256,44634
31345,44545
31459,44545
31572,44522
31668,44458
31732,44362
31738,44333
34930,41140
34930,41140
34986,41057
34986,41057
34989,41041
35005,40959
35005,40959
35005,38023
35105,37785
35133,37756
35202,37590
35202,37500
35202,37410
35134,37243
35006,37116
34840,37047
34660,37047
34493,37115
34366,37243
34297,37409
34297,37589
34365,37756
34394,37784
34494,38023
34494,40853
32035,43311
32027,43270
31903,43085
31776,43000
31903,42914
32027,42729
32070,42511
32070,42488
32027,42270
31930,42125
33156,40899
33156,40899
33212,40816
33212,40816
33215,40800
33231,40718
33231,40718
33231,37514
35633,35112
35662,35106
35758,35042
35822,34947
35842,34847
35933,34756
36002,34590
36002,34410
36002,44763
28736,44763
28736,44500
28736,23500
28736,23236
52263,23236
52263,44500
52263,44763
" /> 
</g>
<g style="fill:#FFFFFF; fill-opacity:1.0; 
stroke:#FFFFFF; stroke-width:39.3701; stroke-opacity:1; 
stroke-linecap:round; stroke-linejoin:round;">
<circle cx="40500" cy="30600" r="49.2126" /> 
<circle cx="33120.3" cy="43120.3" r="49.2126" /> 
<circle cx="40250" cy="35250" r="49.2126" /> 
<circle cx="40250" cy="39500" r="49.2126" /> 
<circle cx="42000" cy="43500" r="49.2126" /> 
<circle cx="44500" cy="44000" r="49.2126" /> 
<circle cx="44500" cy="30500" r="49.2126" /> 
<circle cx="44600" cy="35000" r="49.2126" /> 
<circle cx="44350" cy="39500" r="49.2126" /> 
<circle cx="32500" cy="42000" r="49.2126" /> 
<circle cx="34000" cy="27750" r="49.2126" /> 
<circle cx="33750" cy="37250" r="49.2126" /> 
<circle cx="33250" cy="31500" r="49.2126" /> 
<circle cx="33250" cy="34250" r="49.2126" /> 
<circle cx="32500" cy="29500" r="49.2126" /> 
<circle cx="33350" cy="36300" r="49.2126" /> 
<circle cx="32600" cy="39100" r="49.2126" /> 
<circle cx="38500" cy="25250" r="49.2126" /> 
<circle cx="35450" cy="30200" r="49.2126" /> 
<circle cx="29750" cy="39000" r="49.2126" /> 
<circle cx="35450" cy="32800" r="49.2126" /> 
<circle cx="32196.9" cy="40966" r="49.2126" /> 
<circle cx="35550" cy="34500" r="49.2126" /> 
<circle cx="29750" cy="42250" r="49.2126" /> 
<circle cx="31000" cy="44250" r="49.2126" /> 
<circle cx="34750" cy="37500" r="49.2126" /> 
<circle cx="38500" cy="40000" r="49.2126" /> 
<circle cx="38000" cy="27250" r="49.2126" /> 
<circle cx="38500" cy="35500" r="49.2126" /> 
<circle cx="38500" cy="31000" r="49.2126" /> 
<circle cx="49000" cy="36500" r="49.2126" /> 
<circle cx="48000" cy="36500" r="49.2126" /> 
<circle cx="49000" cy="35500" r="49.2126" /> 
<circle cx="48000" cy="35500" r="49.2126" /> 
<circle cx="49000" cy="34500" r="49.2126" /> 
<circle cx="48000" cy="34500" r="49.2126" /> 
<circle cx="49000" cy="33500" r="49.2126" /> 
<circle cx="48000" cy="33500" r="49.2126" /> 
<circle cx="30500" cy="24500" r="49.2126" /> 
<circle cx="31500" cy="24500" r="49.2126" /> 
<circle cx="30500" cy="25500" r="49.2126" /> 
<circle cx="31500" cy="25500" r="49.2126" /> 
<circle cx="30500" cy="26500" r="49.2126" /> 
<circle cx="31500" cy="26500" r="49.2126" /> 
<circle cx="30500" cy="27500" r="49.2126" /> 
<circle cx="31500" cy="27500" r="49.2126" /> 
<circle cx="30500" cy="28500" r="49.2126" /> 
<circle cx="31500" cy="28500" r="49.2126" /> 
<circle cx="30500" cy="29500" r="49.2126" /> 
<circle cx="31500" cy="29500" r="49.2126" /> 
<circle cx="30500" cy="30500" r="49.2126" /> 
<circle cx="31500" cy="30500" r="49.2126" /> 
<circle cx="30500" cy="31500" r="49.2126" /> 
<circle cx="31500" cy="31500" r="49.2126" /> 
<circle cx="30500" cy="32500" r="49.2126" /> 
<circle cx="31500" cy="32500" r="49.2126" /> 
<circle cx="30500" cy="33500" r="49.2126" /> 
<circle cx="31500" cy="33500" r="49.2126" /> 
<circle cx="30500" cy="34500" r="49.2126" /> 
<circle cx="31500" cy="34500" r="49.2126" /> 
<circle cx="30500" cy="35500" r="49.2126" /> 
<circle cx="31500" cy="35500" r="49.2126" /> 
<circle cx="30500" cy="36500" r="49.2126" /> 
<circle cx="31500" cy="36500" r="49.2126" /> 
<circle cx="30500" cy="37500" r="49.2126" /> 
<circle cx="31500" cy="37500" r="49.2126" /> 
<circle cx="30500" cy="38500" r="49.2126" /> 
<circle cx="31500" cy="38500" r="49.2126" /> 
<circle cx="30500" cy="39500" r="49.2126" /> 
<circle cx="31500" cy="39500" r="49.2126" /> 
<circle cx="30500" cy="40500" r="49.2126" /> 
<circle cx="31500" cy="40500" r="49.2126" /> 
<circle cx="30500" cy="41500" r="49.2126" /> 
<circle cx="31500" cy="41500" r="49.2126" /> 
<circle cx="30500" cy="42500" r="49.2126" /> 
<circle cx="31500" cy="42500" r="49.2126" /> 
<circle cx="30500" cy="43500" r="49.2126" /> 
<circle cx="31500" cy="43500" r="49.2126" /> 
<circle cx="29500" cy="24500" r="49.2126" /> 
<circle cx="32500" cy="24500" r="49.2126" /> 
<circle cx="29500" cy="25500" r="49.2126" /> 
<circle cx="32500" cy="25500" r="49.2126" /> 
<circle cx="29500" cy="26500" r="49.2126" /> 
<circle cx="32500" cy="26500" r="49.2126" /> 
<circle cx="29500" cy="27500" r="49.2126" /> 
<circle cx="32500" cy="27500" r="49.2126" /> 
<circle cx="29500" cy="28500" r="49.2126" /> 
<circle cx="32500" cy="28500" r="49.2126" /> 
<circle cx="29500" cy="30500" r="49.2126" /> 
<circle cx="32500" cy="30500" r="49.2126" /> 
<circle cx="29500" cy="31500" r="49.2126" /> 
<circle cx="32500" cy="33500" r="49.2126" /> 
<circle cx="29500" cy="34500" r="49.2126" /> 
<circle cx="32500" cy="34500" r="49.2126" /> 
<circle cx="29500" cy="35500" r="49.2126" /> 
<circle cx="32500" cy="35500" r="49.2126" /> 
<circle cx="29500" cy="36500" r="49.2126" /> 
<circle cx="32500" cy="36500" r="49.2126" /> 
<circle cx="29500" cy="37500" r="49.2126" /> 
</g> 
</svg>
