<?xml version="1.0" standalone="no"?>
 <!DOCTYPE svg PUBLIC "-//W3C//DTD SVG 1.1//EN" 
 "http://www.w3.org/Graphics/SVG/1.1/DTD/svg11.dtd"> 
<svg xmlns="http://www.w3.org/2000/svg" version="1.1" 
    width="29.7002cm" height="21.0007cm" viewBox="0 0 116930 82680 ">
<title>SVG Picture created as videoadc-F_Cu.svg date 2014/07/26 22:21:41 </title>
  <desc>Picture generated by PCBNEW </desc>
<g style="fill:#000000; fill-opacity:1;stroke:#000000; stroke-opacity:1;
stroke-linecap:round; stroke-linejoin:round; "
 transform="translate(0 0) scale(1 1)">
</g>
<g style="fill:#000000; fill-opacity:0.0; 
stroke:#000000; stroke-width:39.3701; stroke-opacity:1; 
stroke-linecap:round; stroke-linejoin:round;">
<path d="M52500 45000
L52500 44500
" />
<path d="M28500 45000
L52500 45000
" />
<path d="M28500 44500
L28500 45000
" />
<path d="M28500 23000
L28500 23500
" />
<path d="M52500 23000
L28500 23000
" />
<path d="M52500 44500
L52500 23000
" />
<path d="M28500 23500
L28500 44500
" />
</g>
<g style="fill:#000000; fill-opacity:1.0; 
stroke:#000000; stroke-width:39.3701; stroke-opacity:1; 
stroke-linecap:round; stroke-linejoin:round;">
<polyline style="fill-rule:evenodd;"
points="37822,26138
38177,26138
38177,26453
37822,26453
37822,26138
" /> 
<polyline style="fill-rule:evenodd;"
points="37822,25546
38177,25546
38177,25861
37822,25861
37822,25546
" /> 
<polyline style="fill-rule:evenodd;"
points="43988,41665
43988,42334
42649,42334
42649,41665
43988,41665
" /> 
<polyline style="fill-rule:evenodd;"
points="46350,41665
46350,42334
45011,42334
45011,41665
46350,41665
" /> 
<polyline style="fill-rule:evenodd;"
points="43988,37165
43988,37834
42649,37834
42649,37165
43988,37165
" /> 
<polyline style="fill-rule:evenodd;"
points="46350,37165
46350,37834
45011,37834
45011,37165
46350,37165
" /> 
<polyline style="fill-rule:evenodd;"
points="43988,32665
43988,33334
42649,33334
42649,32665
43988,32665
" /> 
<polyline style="fill-rule:evenodd;"
points="46350,32665
46350,33334
45011,33334
45011,32665
46350,32665
" /> 
<polyline style="fill-rule:evenodd;"
points="43988,28165
43988,28834
42649,28834
42649,28165
43988,28165
" /> 
<polyline style="fill-rule:evenodd;"
points="46350,28165
46350,28834
45011,28834
45011,28165
46350,28165
" /> 
<polyline style="fill-rule:evenodd;"
points="34638,29525
34638,28974
35111,28974
35111,29525
34638,29525
" /> 
<polyline style="fill-rule:evenodd;"
points="33888,29525
33888,28974
34361,28974
34361,29525
33888,29525
" /> 
<polyline style="fill-rule:evenodd;"
points="34638,31525
34638,30974
35111,30974
35111,31525
34638,31525
" /> 
<polyline style="fill-rule:evenodd;"
points="33888,31525
33888,30974
34361,30974
34361,31525
33888,31525
" /> 
<polyline style="fill-rule:evenodd;"
points="34638,34775
34638,34224
35111,34224
35111,34775
34638,34775
" /> 
<polyline style="fill-rule:evenodd;"
points="33888,34775
33888,34224
34361,34224
34361,34775
33888,34775
" /> 
<polyline style="fill-rule:evenodd;"
points="34638,36775
34638,36224
35111,36224
35111,36775
34638,36775
" /> 
<polyline style="fill-rule:evenodd;"
points="33888,36775
33888,36224
34361,36224
34361,36775
33888,36775
" /> 
<polyline style="fill-rule:evenodd;"
points="38177,24361
37822,24361
37822,24046
38177,24046
38177,24361
" /> 
<polyline style="fill-rule:evenodd;"
points="38177,24953
37822,24953
37822,24638
38177,24638
38177,24953
" /> 
<polyline style="fill-rule:evenodd;"
points="41822,26138
42177,26138
42177,26453
41822,26453
41822,26138
" /> 
<polyline style="fill-rule:evenodd;"
points="41822,25546
42177,25546
42177,25861
41822,25861
41822,25546
" /> 
<polyline style="fill-rule:evenodd;"
points="41822,31388
42177,31388
42177,31703
41822,31703
41822,31388
" /> 
<polyline style="fill-rule:evenodd;"
points="41822,30796
42177,30796
42177,31111
41822,31111
41822,30796
" /> 
<polyline style="fill-rule:evenodd;"
points="41822,35888
42177,35888
42177,36203
41822,36203
41822,35888
" /> 
<polyline style="fill-rule:evenodd;"
points="41822,35296
42177,35296
42177,35611
41822,35611
41822,35296
" /> 
<polyline style="fill-rule:evenodd;"
points="41822,40388
42177,40388
42177,40703
41822,40703
41822,40388
" /> 
<polyline style="fill-rule:evenodd;"
points="41822,39796
42177,39796
42177,40111
41822,40111
41822,39796
" /> 
<polyline style="fill-rule:evenodd;"
points="49320,36820
48679,36820
48679,36179
49320,36179
49320,36820
" /> 
</g>
<g style="fill:#000000; fill-opacity:1.0; 
stroke:#000000; stroke-width:680; stroke-opacity:1; 
stroke-linecap:round; stroke-linejoin:round;">
</g>
<g style="fill:#000000; fill-opacity:0.0; 
stroke:#000000; stroke-width:680; stroke-opacity:1; 
stroke-linecap:round; stroke-linejoin:round;">
<path d="M48000 36500
L48000 36500
" />
<path d="M49000 35500
L49000 35500
" />
<path d="M48000 35500
L48000 35500
" />
<path d="M49000 34500
L49000 34500
" />
<path d="M48000 34500
L48000 34500
" />
<path d="M49000 33500
L49000 33500
" />
<path d="M48000 33500
L48000 33500
" />
</g>
<g style="fill:#000000; fill-opacity:0.0; 
stroke:#000000; stroke-width:39.3701; stroke-opacity:1; 
stroke-linecap:round; stroke-linejoin:round;">
</g>
<g style="fill:#000000; fill-opacity:1.0; 
stroke:#000000; stroke-width:39.3701; stroke-opacity:1; 
stroke-linecap:round; stroke-linejoin:round;">
<polyline style="fill-rule:evenodd;"
points="30179,24179
30820,24179
30820,24820
30179,24820
30179,24179
" /> 
</g>
<g style="fill:#000000; fill-opacity:1.0; 
stroke:#000000; stroke-width:708.661; stroke-opacity:1; 
stroke-linecap:round; stroke-linejoin:round;">
</g>
<g style="fill:#000000; fill-opacity:0.0; 
stroke:#000000; stroke-width:708.661; stroke-opacity:1; 
stroke-linecap:round; stroke-linejoin:round;">
<path d="M31500 24500
L31500 24500
" />
<path d="M30500 25500
L30500 25500
" />
<path d="M31500 25500
L31500 25500
" />
<path d="M30500 26500
L30500 26500
" />
<path d="M31500 26500
L31500 26500
" />
<path d="M30500 27500
L30500 27500
" />
<path d="M31500 27500
L31500 27500
" />
<path d="M30500 28500
L30500 28500
" />
<path d="M31500 28500
L31500 28500
" />
<path d="M30500 29500
L30500 29500
" />
<path d="M31500 29500
L31500 29500
" />
<path d="M30500 30500
L30500 30500
" />
<path d="M31500 30500
L31500 30500
" />
<path d="M30500 31500
L30500 31500
" />
<path d="M31500 31500
L31500 31500
" />
<path d="M30500 32500
L30500 32500
" />
<path d="M31500 32500
L31500 32500
" />
<path d="M30500 33500
L30500 33500
" />
<path d="M31500 33500
L31500 33500
" />
<path d="M30500 34500
L30500 34500
" />
<path d="M31500 34500
L31500 34500
" />
<path d="M30500 35500
L30500 35500
" />
<path d="M31500 35500
L31500 35500
" />
<path d="M30500 36500
L30500 36500
" />
<path d="M31500 36500
L31500 36500
" />
<path d="M30500 37500
L30500 37500
" />
<path d="M31500 37500
L31500 37500
" />
<path d="M30500 38500
L30500 38500
" />
<path d="M31500 38500
L31500 38500
" />
<path d="M30500 39500
L30500 39500
" />
<path d="M31500 39500
L31500 39500
" />
<path d="M30500 40500
L30500 40500
" />
<path d="M31500 40500
L31500 40500
" />
<path d="M30500 41500
L30500 41500
" />
<path d="M31500 41500
L31500 41500
" />
<path d="M30500 42500
L30500 42500
" />
<path d="M31500 42500
L31500 42500
" />
<path d="M30500 43500
L30500 43500
" />
<path d="M31500 43500
L31500 43500
" />
</g>
<g style="fill:#000000; fill-opacity:0.0; 
stroke:#000000; stroke-width:39.3701; stroke-opacity:1; 
stroke-linecap:round; stroke-linejoin:round;">
</g>
<g style="fill:#000000; fill-opacity:1.0; 
stroke:#000000; stroke-width:39.3701; stroke-opacity:1; 
stroke-linecap:round; stroke-linejoin:round;">
<circle cx="29500" cy="24500" r="205.315" /> 
<circle cx="32500" cy="24500" r="205.315" /> 
<circle cx="29500" cy="25500" r="205.315" /> 
<circle cx="32500" cy="25500" r="205.315" /> 
<circle cx="29500" cy="26500" r="205.315" /> 
<circle cx="32500" cy="26500" r="205.315" /> 
<circle cx="29500" cy="27500" r="205.315" /> 
<circle cx="32500" cy="27500" r="205.315" /> 
<circle cx="29500" cy="28500" r="205.315" /> 
<circle cx="32500" cy="28500" r="205.315" /> 
<circle cx="29500" cy="30500" r="205.315" /> 
<circle cx="32500" cy="30500" r="205.315" /> 
<circle cx="29500" cy="31500" r="205.315" /> 
<circle cx="32500" cy="33500" r="205.315" /> 
<circle cx="29500" cy="34500" r="205.315" /> 
<circle cx="32500" cy="34500" r="205.315" /> 
<circle cx="29500" cy="35500" r="205.315" /> 
<circle cx="32500" cy="35500" r="205.315" /> 
<circle cx="29500" cy="36500" r="205.315" /> 
<circle cx="32500" cy="36500" r="205.315" /> 
<circle cx="29500" cy="37500" r="205.315" /> 
<polyline style="fill-rule:evenodd;"
points="33783,23968
34216,23968
34216,24243
33783,24243
33783,23968
" /> 
<polyline style="fill-rule:evenodd;"
points="33783,24756
34216,24756
34216,25031
33783,25031
33783,24756
" /> 
<polyline style="fill-rule:evenodd;"
points="46531,30283
46531,30716
46256,30716
46256,30283
46531,30283
" /> 
<polyline style="fill-rule:evenodd;"
points="45743,30283
45743,30716
45468,30716
45468,30283
45743,30283
" /> 
<polyline style="fill-rule:evenodd;"
points="46531,34783
46531,35216
46256,35216
46256,34783
46531,34783
" /> 
<polyline style="fill-rule:evenodd;"
points="45743,34783
45743,35216
45468,35216
45468,34783
45743,34783
" /> 
<polyline style="fill-rule:evenodd;"
points="46531,39283
46531,39716
46256,39716
46256,39283
46531,39283
" /> 
<polyline style="fill-rule:evenodd;"
points="45743,39283
45743,39716
45468,39716
45468,39283
45743,39283
" /> 
<polyline style="fill-rule:evenodd;"
points="46531,43783
46531,44216
46256,44216
46256,43783
46531,43783
" /> 
<polyline style="fill-rule:evenodd;"
points="45743,43783
45743,44216
45468,44216
45468,43783
45743,43783
" /> 
<polyline style="fill-rule:evenodd;"
points="35031,30033
35031,30466
34756,30466
34756,30033
35031,30033
" /> 
<polyline style="fill-rule:evenodd;"
points="34243,30033
34243,30466
33968,30466
33968,30033
34243,30033
" /> 
<polyline style="fill-rule:evenodd;"
points="35031,32033
35031,32466
34756,32466
34756,32033
35031,32033
" /> 
<polyline style="fill-rule:evenodd;"
points="34243,32033
34243,32466
33968,32466
33968,32033
34243,32033
" /> 
<polyline style="fill-rule:evenodd;"
points="35031,33283
35031,33716
34756,33716
34756,33283
35031,33283
" /> 
<polyline style="fill-rule:evenodd;"
points="34243,33283
34243,33716
33968,33716
33968,33283
34243,33283
" /> 
<polyline style="fill-rule:evenodd;"
points="35031,35283
35031,35716
34756,35716
34756,35283
35031,35283
" /> 
<polyline style="fill-rule:evenodd;"
points="34243,35283
34243,35716
33968,35716
33968,35283
34243,35283
" /> 
<polyline style="fill-rule:evenodd;"
points="35151,24205
35151,23694
35348,23694
35348,24205
35151,24205
" /> 
<polyline style="fill-rule:evenodd;"
points="35151,26305
35151,25794
35348,25794
35348,26305
35151,26305
" /> 
<polyline style="fill-rule:evenodd;"
points="35651,24205
35651,23694
35848,23694
35848,24205
35651,24205
" /> 
<polyline style="fill-rule:evenodd;"
points="36151,24205
36151,23694
36348,23694
36348,24205
36151,24205
" /> 
<polyline style="fill-rule:evenodd;"
points="36651,24205
36651,23694
36848,23694
36848,24205
36651,24205
" /> 
<polyline style="fill-rule:evenodd;"
points="35651,26305
35651,25794
35848,25794
35848,26305
35651,26305
" /> 
<polyline style="fill-rule:evenodd;"
points="36151,26305
36151,25794
36348,25794
36348,26305
36151,26305
" /> 
<polyline style="fill-rule:evenodd;"
points="36651,26305
36651,25794
36848,25794
36848,26305
36651,26305
" /> 
<polyline style="fill-rule:evenodd;"
points="33783,25968
34216,25968
34216,26243
33783,26243
33783,25968
" /> 
<polyline style="fill-rule:evenodd;"
points="33783,26756
34216,26756
34216,27031
33783,27031
33783,26756
" /> 
<polyline style="fill-rule:evenodd;"
points="41244,28637
40889,28637
40889,28362
41244,28362
41244,28637
" /> 
<polyline style="fill-rule:evenodd;"
points="42110,28262
41755,28262
41755,27987
42110,27987
42110,28262
" /> 
<polyline style="fill-rule:evenodd;"
points="42110,29012
41755,29012
41755,28737
42110,28737
42110,29012
" /> 
<polyline style="fill-rule:evenodd;"
points="41244,33137
40889,33137
40889,32862
41244,32862
41244,33137
" /> 
<polyline style="fill-rule:evenodd;"
points="42110,32762
41755,32762
41755,32487
42110,32487
42110,32762
" /> 
<polyline style="fill-rule:evenodd;"
points="42110,33512
41755,33512
41755,33237
42110,33237
42110,33512
" /> 
<polyline style="fill-rule:evenodd;"
points="41244,37637
40889,37637
40889,37362
41244,37362
41244,37637
" /> 
<polyline style="fill-rule:evenodd;"
points="42110,37262
41755,37262
41755,36987
42110,36987
42110,37262
" /> 
<polyline style="fill-rule:evenodd;"
points="42110,38012
41755,38012
41755,37737
42110,37737
42110,38012
" /> 
<polyline style="fill-rule:evenodd;"
points="41244,42137
40889,42137
40889,41862
41244,41862
41244,42137
" /> 
<polyline style="fill-rule:evenodd;"
points="42110,41762
41755,41762
41755,41487
42110,41487
42110,41762
" /> 
<polyline style="fill-rule:evenodd;"
points="42110,42512
41755,42512
41755,42237
42110,42237
42110,42512
" /> 
<polyline style="fill-rule:evenodd;"
points="37820,28972
36679,28972
36679,28027
37820,28027
37820,28972
" /> 
<polyline style="fill-rule:evenodd;"
points="40820,27972
39679,27972
39679,27027
40820,27027
40820,27972
" /> 
<polyline style="fill-rule:evenodd;"
points="40820,29972
39679,29972
39679,29027
40820,29027
40820,29972
" /> 
<polyline style="fill-rule:evenodd;"
points="37820,33472
36679,33472
36679,32527
37820,32527
37820,33472
" /> 
<polyline style="fill-rule:evenodd;"
points="40820,32472
39679,32472
39679,31527
40820,31527
40820,32472
" /> 
<polyline style="fill-rule:evenodd;"
points="40820,34472
39679,34472
39679,33527
40820,33527
40820,34472
" /> 
<polyline style="fill-rule:evenodd;"
points="37820,37972
36679,37972
36679,37027
37820,37027
37820,37972
" /> 
<polyline style="fill-rule:evenodd;"
points="40820,36972
39679,36972
39679,36027
40820,36027
40820,36972
" /> 
<polyline style="fill-rule:evenodd;"
points="40820,38972
39679,38972
39679,38027
40820,38027
40820,38972
" /> 
<polyline style="fill-rule:evenodd;"
points="37820,42472
36679,42472
36679,41527
37820,41527
37820,42472
" /> 
<polyline style="fill-rule:evenodd;"
points="40820,41472
39679,41472
39679,40527
40820,40527
40820,41472
" /> 
<polyline style="fill-rule:evenodd;"
points="40820,43472
39679,43472
39679,42527
40820,42527
40820,43472
" /> 
<circle cx="40500" cy="30600" r="216.535" /> 
<circle cx="33120.3" cy="43120.3" r="216.535" /> 
<circle cx="40250" cy="35250" r="216.535" /> 
<circle cx="40250" cy="39500" r="216.535" /> 
<circle cx="42000" cy="43500" r="216.535" /> 
<circle cx="44500" cy="44000" r="216.535" /> 
<circle cx="44500" cy="30500" r="216.535" /> 
<circle cx="44600" cy="35000" r="216.535" /> 
<circle cx="44350" cy="39500" r="216.535" /> 
<circle cx="32500" cy="42000" r="216.535" /> 
<circle cx="34000" cy="27750" r="216.535" /> 
<circle cx="33750" cy="37250" r="216.535" /> 
<circle cx="33250" cy="31500" r="216.535" /> 
<circle cx="33250" cy="34250" r="216.535" /> 
<circle cx="32500" cy="29500" r="216.535" /> 
<circle cx="33350" cy="36300" r="216.535" /> 
<circle cx="32600" cy="39100" r="216.535" /> 
<circle cx="38500" cy="25250" r="216.535" /> 
<circle cx="35450" cy="30200" r="216.535" /> 
<circle cx="29750" cy="39000" r="216.535" /> 
<circle cx="35450" cy="32800" r="216.535" /> 
<circle cx="32196.9" cy="40966" r="216.535" /> 
<circle cx="35550" cy="34500" r="216.535" /> 
<circle cx="29750" cy="42250" r="216.535" /> 
<circle cx="31000" cy="44250" r="216.535" /> 
<circle cx="34750" cy="37500" r="216.535" /> 
<circle cx="38500" cy="40000" r="216.535" /> 
<circle cx="38000" cy="27250" r="216.535" /> 
<circle cx="38500" cy="35500" r="216.535" /> 
<circle cx="38500" cy="31000" r="216.535" /> 
</g>
<g style="fill:#000000; fill-opacity:1.0; 
stroke:#000000; stroke-width:78.7402; stroke-opacity:1; 
stroke-linecap:round; stroke-linejoin:round;">
</g>
<g style="fill:#000000; fill-opacity:0.0; 
stroke:#000000; stroke-width:78.7402; stroke-opacity:1; 
stroke-linecap:round; stroke-linejoin:round;">
<path d="M49000 36000
L47500 36000
" />
<path d="M49000 35000
L47600 35000
" />
<path d="M49000 34000
L47700 34000
" />
</g>
<g style="fill:#000000; fill-opacity:0.0; 
stroke:#000000; stroke-width:157.48; stroke-opacity:1; 
stroke-linecap:round; stroke-linejoin:round;">
<path d="M39734 29484
L40084 29484
" />
<path d="M40084 29484
L40263 29663
" />
<path d="M40263 29663
L40263 30363
" />
<path d="M40263 30363
L40500 30600
" />
</g>
<g style="fill:#000000; fill-opacity:0.0; 
stroke:#000000; stroke-width:78.7402; stroke-opacity:1; 
stroke-linecap:round; stroke-linejoin:round;">
<path d="M39734 33984
L37716 33984
" />
<path d="M37716 33984
L36364 35335
" />
<path d="M36364 35335
L36364 38135
" />
<path d="M36364 38135
L32736 41763
" />
<path d="M32736 41763
L32500 42000
" />
</g>
<g style="fill:#000000; fill-opacity:0.0; 
stroke:#000000; stroke-width:118.11; stroke-opacity:1; 
stroke-linecap:round; stroke-linejoin:round;">
<path d="M41933 28875
L41933 30653
" />
<path d="M41933 30653
L41933 30887
" />
<path d="M40500 30600
L41880 30600
" />
<path d="M41880 30600
L41933 30653
" />
<path d="M38250 38500
L37250 38500
" />
<path d="M37250 38500
L33120 42629
" />
<path d="M33120 42629
L33120 43120
" />
<path d="M42000 25704
L38954 25704
" />
<path d="M38954 25704
L38500 25250
" />
<path d="M41933 30887
L42000 30954
" />
<path d="M41933 33375
L41933 35387
" />
<path d="M41933 35387
L42000 35454
" />
</g>
<g style="fill:#000000; fill-opacity:0.0; 
stroke:#000000; stroke-width:157.48; stroke-opacity:1; 
stroke-linecap:round; stroke-linejoin:round;">
<path d="M38250 38500
L38500 38500
" />
<path d="M38500 38500
L39500 39500
" />
<path d="M39500 39500
L40250 39500
" />
<path d="M40250 34250
L40250 34000
" />
<path d="M40250 34000
L40250 35250
" />
<path d="M41796 35250
L40250 35250
" />
<path d="M42000 35454
L41796 35250
" />
<path d="M42000 39500
L41959 39500
" />
<path d="M41959 39500
L40250 39500
" />
</g>
<g style="fill:#000000; fill-opacity:0.0; 
stroke:#000000; stroke-width:118.11; stroke-opacity:1; 
stroke-linecap:round; stroke-linejoin:round;">
<path d="M41933 37875
L41933 39473
" />
<path d="M41933 39473
L41959 39500
" />
</g>
<g style="fill:#000000; fill-opacity:0.0; 
stroke:#000000; stroke-width:157.48; stroke-opacity:1; 
stroke-linecap:round; stroke-linejoin:round;">
<path d="M42000 39954
L42000 39500
" />
<path d="M40250 38500
L40250 39500
" />
</g>
<g style="fill:#000000; fill-opacity:0.0; 
stroke:#000000; stroke-width:118.11; stroke-opacity:1; 
stroke-linecap:round; stroke-linejoin:round;">
<path d="M41933 42375
L41933 43433
" />
<path d="M41933 43433
L42000 43500
" />
</g>
<g style="fill:#000000; fill-opacity:0.0; 
stroke:#000000; stroke-width:157.48; stroke-opacity:1; 
stroke-linecap:round; stroke-linejoin:round;">
<path d="M41665 43500
L42000 43500
" />
<path d="M40250 43500
L41665 43500
" />
<path d="M39734 42984
L40250 43500
" />
</g>
<g style="fill:#000000; fill-opacity:0.0; 
stroke:#000000; stroke-width:78.7402; stroke-opacity:1; 
stroke-linecap:round; stroke-linejoin:round;">
<path d="M45606 44000
L44500 44000
" />
<path d="M45606 30500
L45369 30500
" />
<path d="M45369 30500
L44500 30500
" />
<path d="M45369 35000
L44600 35000
" />
<path d="M45606 35000
L45369 35000
" />
<path d="M45606 39500
L44350 39500
" />
<path d="M35650 37350
L34850 38150
" />
<path d="M35925 34680
L35650 34955
" />
<path d="M35925 29341
L35925 34680
" />
<path d="M34000 27750
L34334 27750
" />
<path d="M36283 32184
L36283 34828
" />
<path d="M34334 27750
L35925 29341
" />
<path d="M35650 34955
L35650 37350
" />
<path d="M36283 34828
L36007 35103
" />
<path d="M39734 29484
L36283 32184
" />
</g>
<g style="fill:#000000; fill-opacity:0.0; 
stroke:#000000; stroke-width:118.11; stroke-opacity:1; 
stroke-linecap:round; stroke-linejoin:round;">
<path d="M31839 38839
L31500 38500
" />
</g>
<g style="fill:#000000; fill-opacity:0.0; 
stroke:#000000; stroke-width:78.7402; stroke-opacity:1; 
stroke-linecap:round; stroke-linejoin:round;">
<path d="M33986 37486
L33750 37250
" />
<path d="M34850 38150
L34650 38150
" />
<path d="M34650 38150
L33986 37486
" />
<path d="M36750 25892
L37392 25250
" />
<path d="M36750 26050
L36750 25892
" />
<path d="M37994 25250
L38000 25255
" />
<path d="M37392 25250
L37994 25250
" />
<path d="M38000 25255
L38000 25704
" />
<path d="M38000 24796
L38000 25255
" />
<path d="M34106 36481
L34125 36500
" />
<path d="M34125 36625
L34125 36500
" />
<path d="M34125 36500
L34125 36652
" />
<path d="M34000 27750
L34176 27750
" />
</g>
<g style="fill:#000000; fill-opacity:0.0; 
stroke:#000000; stroke-width:157.48; stroke-opacity:1; 
stroke-linecap:round; stroke-linejoin:round;">
<path d="M34000 26894
L34000 27750
" />
</g>
<g style="fill:#000000; fill-opacity:0.0; 
stroke:#000000; stroke-width:78.7402; stroke-opacity:1; 
stroke-linecap:round; stroke-linejoin:round;">
<path d="M34125 36875
L33750 37250
" />
<path d="M34125 36500
L34125 36875
" />
<path d="M34125 36461
L34125 36500
" />
<path d="M34459 36126
L34125 36461
" />
<path d="M34459 34873
L34459 36126
" />
<path d="M34125 34539
L34459 34873
" />
<path d="M34125 34500
L34125 34539
" />
<path d="M34125 34461
L34125 34500
" />
<path d="M34459 34126
L34125 34461
" />
<path d="M34459 31623
L34459 34126
" />
<path d="M34125 31289
L34459 31623
" />
<path d="M34125 31250
L34125 31289
" />
<path d="M34125 31211
L34125 31250
" />
<path d="M34459 30876
L34125 31211
" />
<path d="M34459 29623
L34459 30876
" />
<path d="M34125 29289
L34459 29623
" />
<path d="M34125 29250
L34125 29289
" />
<path d="M34000 29125
L34125 29250
" />
</g>
<g style="fill:#000000; fill-opacity:0.0; 
stroke:#000000; stroke-width:157.48; stroke-opacity:1; 
stroke-linecap:round; stroke-linejoin:round;">
<path d="M34000 27750
L34000 29125
" />
</g>
<g style="fill:#000000; fill-opacity:0.0; 
stroke:#000000; stroke-width:78.7402; stroke-opacity:1; 
stroke-linecap:round; stroke-linejoin:round;">
<path d="M33500 31250
L33250 31500
" />
<path d="M34125 31250
L33500 31250
" />
<path d="M34125 34500
L33500 34500
" />
<path d="M33500 34500
L33250 34250
" />
</g>
<g style="fill:#000000; fill-opacity:0.0; 
stroke:#000000; stroke-width:157.48; stroke-opacity:1; 
stroke-linecap:round; stroke-linejoin:round;">
<path d="M31500 29500
L31980 29500
" />
<path d="M31980 29500
L32500 29500
" />
<path d="M33300 29250
L33050 29500
" />
<path d="M33050 29500
L32500 29500
" />
<path d="M34125 29250
L33300 29250
" />
</g>
<g style="fill:#000000; fill-opacity:0.0; 
stroke:#000000; stroke-width:78.7402; stroke-opacity:1; 
stroke-linecap:round; stroke-linejoin:round;">
<path d="M33750 36915
L33350 36515
" />
<path d="M33750 37250
L33750 36915
" />
<path d="M33350 36515
L33350 36300
" />
<path d="M38000 25255
L38494 25255
" />
<path d="M38494 25255
L38500 25250
" />
</g>
<g style="fill:#000000; fill-opacity:0.0; 
stroke:#000000; stroke-width:118.11; stroke-opacity:1; 
stroke-linecap:round; stroke-linejoin:round;">
<path d="M34665 38839
L31839 38839
" />
</g>
<g style="fill:#000000; fill-opacity:0.0; 
stroke:#000000; stroke-width:78.7402; stroke-opacity:1; 
stroke-linecap:round; stroke-linejoin:round;">
<path d="M36007 37498
L34665 38839
" />
<path d="M36007 35103
L36007 37498
" />
<path d="M43319 42000
L41067 42000
" />
<path d="M41067 42000
L37766 42000
" />
<path d="M37766 42000
L37516 42250
" />
<path d="M35390 43625
L31625 43625
" />
<path d="M37766 42000
L35390 43625
" />
<path d="M31625 43625
L31500 43500
" />
<path d="M48000 39681
L45681 42000
" />
<path d="M48000 36500
L48000 39681
" />
<path d="M46394 42713
L45681 42000
" />
<path d="M46394 44000
L46394 42713
" />
<path d="M37016 38195
L37016 37500
" />
<path d="M32711 42500
L37016 38195
" />
<path d="M31500 42500
L32711 42500
" />
<path d="M43319 37500
L41067 37500
" />
<path d="M41067 37500
L37016 37500
" />
<path d="M46394 38213
L45681 37500
" />
<path d="M46394 39500
L46394 38213
" />
<path d="M45681 37219
L45681 37500
" />
<path d="M47400 35500
L45681 37219
" />
</g>
<g style="fill:#000000; fill-opacity:0.0; 
stroke:#000000; stroke-width:157.48; stroke-opacity:1; 
stroke-linecap:round; stroke-linejoin:round;">
<path d="M48000 35500
L47400 35500
" />
</g>
<g style="fill:#000000; fill-opacity:0.0; 
stroke:#000000; stroke-width:78.7402; stroke-opacity:1; 
stroke-linecap:round; stroke-linejoin:round;">
<path d="M37250 33000
L37250 34150
" />
<path d="M36186 35213
L36186 37772
" />
<path d="M37250 34150
L36186 35213
" />
<path d="M36186 37772
L31958 42000
" />
<path d="M31958 42000
L31000 42000
" />
<path d="M31000 42000
L30839 41839
" />
<path d="M30839 41839
L30500 41500
" />
<path d="M43319 33000
L41067 33000
" />
<path d="M41067 33000
L37766 33000
" />
<path d="M47181 34500
L45681 33000
" />
<path d="M48000 34500
L47181 34500
" />
<path d="M46681 35000
L47181 34500
" />
<path d="M46394 35000
L46681 35000
" />
<path d="M36104 34754
L35828 35029
" />
<path d="M37766 28500
L36104 29411
" />
<path d="M35828 37424
L34924 38328
" />
<path d="M36104 29411
L36104 34754
" />
<path d="M32328 38328
L31839 37839
" />
<path d="M34924 38328
L32328 38328
" />
<path d="M35828 35029
L35828 37424
" />
<path d="M31839 37839
L31500 37500
" />
<path d="M43319 28500
L41067 28500
" />
<path d="M41067 28500
L37766 28500
" />
<path d="M46630 30500
L46394 30500
" />
<path d="M48000 31869
L46630 30500
" />
<path d="M48000 33500
L48000 31869
" />
<path d="M46394 29213
L45681 28500
" />
<path d="M46394 30500
L46394 29213
" />
<path d="M34894 30250
L35400 30250
" />
<path d="M35400 30250
L35450 30200
" />
<path d="M35019 30125
L34894 30250
" />
<path d="M34894 29269
L34875 29250
" />
<path d="M34894 30250
L34894 29269
" />
</g>
<g style="fill:#000000; fill-opacity:0.0; 
stroke:#000000; stroke-width:118.11; stroke-opacity:1; 
stroke-linecap:round; stroke-linejoin:round;">
<path d="M30000 39000
L29750 39000
" />
<path d="M30500 39500
L30000 39000
" />
</g>
<g style="fill:#000000; fill-opacity:0.0; 
stroke:#000000; stroke-width:78.7402; stroke-opacity:1; 
stroke-linecap:round; stroke-linejoin:round;">
<path d="M34894 32250
L34894 32328
" />
<path d="M35365 32800
L35450 32800
" />
<path d="M34894 32328
L35365 32800
" />
<path d="M35000 32356
L34921 32356
" />
<path d="M34894 31269
L34875 31250
" />
<path d="M34894 32250
L34894 31269
" />
</g>
<g style="fill:#000000; fill-opacity:0.0; 
stroke:#000000; stroke-width:118.11; stroke-opacity:1; 
stroke-linecap:round; stroke-linejoin:round;">
<path d="M31941 41500
L32196 41244
" />
<path d="M31500 41500
L31941 41500
" />
<path d="M32196 41244
L32196 40966
" />
</g>
<g style="fill:#000000; fill-opacity:0.0; 
stroke:#000000; stroke-width:78.7402; stroke-opacity:1; 
stroke-linecap:round; stroke-linejoin:round;">
<path d="M34875 34500
L35550 34500
" />
<path d="M34875 33519
L34894 33500
" />
<path d="M34875 34500
L34875 33519
" />
<path d="M30790 42500
L30500 42500
" />
</g>
<g style="fill:#000000; fill-opacity:0.0; 
stroke:#000000; stroke-width:157.48; stroke-opacity:1; 
stroke-linecap:round; stroke-linejoin:round;">
<path d="M30500 42500
L30000 42500
" />
<path d="M30000 42500
L29750 42250
" />
</g>
<g style="fill:#000000; fill-opacity:0.0; 
stroke:#000000; stroke-width:78.7402; stroke-opacity:1; 
stroke-linecap:round; stroke-linejoin:round;">
<path d="M34894 35500
L34894 35394
" />
<path d="M34894 35421
L34894 35500
" />
</g>
<g style="fill:#000000; fill-opacity:0.0; 
stroke:#000000; stroke-width:157.48; stroke-opacity:1; 
stroke-linecap:round; stroke-linejoin:round;">
<path d="M31000 44000
L31000 44250
" />
<path d="M30500 43500
L31000 44000
" />
</g>
<g style="fill:#000000; fill-opacity:0.0; 
stroke:#000000; stroke-width:78.7402; stroke-opacity:1; 
stroke-linecap:round; stroke-linejoin:round;">
<path d="M34875 36500
L35018 36643
" />
<path d="M35018 36643
L35018 37231
" />
<path d="M35018 37231
L34750 37500
" />
<path d="M34894 36481
L34875 36500
" />
<path d="M34894 35500
L34894 36481
" />
<path d="M30500 29500
L31000 29000
" />
<path d="M31000 29000
L32750 29000
" />
<path d="M32750 29000
L33350 28400
" />
<path d="M33350 28400
L33350 24756
" />
<path d="M33350 24756
L34000 24106
" />
</g>
<g style="fill:#000000; fill-opacity:0.0; 
stroke:#000000; stroke-width:118.11; stroke-opacity:1; 
stroke-linecap:round; stroke-linejoin:round;">
<path d="M35250 23950
L34550 23950
" />
<path d="M34394 24106
L34000 24106
" />
<path d="M34550 23950
L34394 24106
" />
<path d="M35250 24300
L35250 23950
" />
<path d="M35450 24500
L35250 24300
" />
<path d="M37450 24500
L35450 24500
" />
<path d="M37746 24204
L37450 24500
" />
<path d="M38000 24204
L37746 24204
" />
<path d="M42000 36341
L42000 36285
" />
<path d="M42000 36285
L42000 36046
" />
<path d="M41933 37125
L41933 36849
" />
<path d="M41933 36849
L42000 36782
" />
<path d="M42000 36782
L42000 36285
" />
<path d="M41841 36500
L42000 36341
" />
<path d="M40250 36500
L41841 36500
" />
<path d="M42000 31546
L42000 31966
" />
<path d="M42000 31966
L42000 32558
" />
<path d="M40250 32000
L41966 32000
" />
<path d="M41966 32000
L42000 31966
" />
<path d="M42000 26296
L42000 28058
" />
<path d="M42000 28058
L41933 28125
" />
<path d="M42000 32558
L41933 32625
" />
</g>
<g style="fill:#000000; fill-opacity:0.0; 
stroke:#000000; stroke-width:157.48; stroke-opacity:1; 
stroke-linecap:round; stroke-linejoin:round;">
<path d="M40250 36500
L39663 36500
" />
<path d="M39663 36500
L38663 35500
" />
</g>
<g style="fill:#000000; fill-opacity:0.0; 
stroke:#000000; stroke-width:118.11; stroke-opacity:1; 
stroke-linecap:round; stroke-linejoin:round;">
<path d="M41933 40817
L41933 41000
" />
<path d="M41933 41625
L41933 41000
" />
<path d="M41933 41000
L40250 41000
" />
<path d="M42000 40750
L41933 40817
" />
<path d="M42000 40546
L42000 40750
" />
</g>
<g style="fill:#000000; fill-opacity:0.0; 
stroke:#000000; stroke-width:157.48; stroke-opacity:1; 
stroke-linecap:round; stroke-linejoin:round;">
<path d="M39734 41016
L39718 41000
" />
<path d="M39718 41000
L38968 41000
" />
<path d="M38968 41000
L38492 40524
" />
<path d="M38500 40334
L38500 40000
" />
<path d="M38500 40484
L38500 40334
" />
<path d="M38492 40492
L38500 40484
" />
</g>
<g style="fill:#000000; fill-opacity:0.0; 
stroke:#000000; stroke-width:78.7402; stroke-opacity:1; 
stroke-linecap:round; stroke-linejoin:round;">
<path d="M35250 26050
L35750 26050
" />
<path d="M35250 26050
L35250 26207
" />
<path d="M38492 40524
L38492 40492
" />
<path d="M38663 35500
L38500 35500
" />
<path d="M38663 31000
L38500 31000
" />
</g>
<g style="fill:#000000; fill-opacity:0.0; 
stroke:#000000; stroke-width:118.11; stroke-opacity:1; 
stroke-linecap:round; stroke-linejoin:round;">
<path d="M38984 31320
L38663 31000
" />
<path d="M39734 32016
L38984 31320
" />
</g>
<g style="fill:#000000; fill-opacity:0.0; 
stroke:#000000; stroke-width:157.48; stroke-opacity:1; 
stroke-linecap:round; stroke-linejoin:round;">
<path d="M38266 27516
L38000 27250
" />
<path d="M39734 27516
L38266 27516
" />
<path d="M41933 28125
L41433 27500
" />
</g>
<g style="fill:#000000; fill-opacity:0.0; 
stroke:#000000; stroke-width:78.7402; stroke-opacity:1; 
stroke-linecap:round; stroke-linejoin:round;">
<path d="M41980 26296
L42000 26296
" />
</g>
<g style="fill:#000000; fill-opacity:0.0; 
stroke:#000000; stroke-width:157.48; stroke-opacity:1; 
stroke-linecap:round; stroke-linejoin:round;">
<path d="M40429 32016
L39734 32016
" />
</g>
<g style="fill:#000000; fill-opacity:0.0; 
stroke:#000000; stroke-width:78.7402; stroke-opacity:1; 
stroke-linecap:round; stroke-linejoin:round;">
<path d="M40787 31962
L40787 32016
" />
<path d="M40796 31954
L40787 31962
" />
</g>
<g style="fill:#000000; fill-opacity:0.0; 
stroke:#000000; stroke-width:157.48; stroke-opacity:1; 
stroke-linecap:round; stroke-linejoin:round;">
<path d="M40787 32016
L40429 32016
" />
</g>
<g style="fill:#000000; fill-opacity:0.0; 
stroke:#000000; stroke-width:78.7402; stroke-opacity:1; 
stroke-linecap:round; stroke-linejoin:round;">
<path d="M41980 40546
L42000 40546
" />
<path d="M41980 36046
L42000 36046
" />
</g>
<g style="fill:#000000; fill-opacity:0.0; 
stroke:#000000; stroke-width:157.48; stroke-opacity:1; 
stroke-linecap:round; stroke-linejoin:round;">
<path d="M41433 27516
L41417 27500
" />
<path d="M41417 27500
L41433 27500
" />
<path d="M39734 27516
L41433 27516
" />
<path d="M35800 27250
L38000 27250
" />
<path d="M35250 26700
L35800 27250
" />
<path d="M35250 26207
L35250 26700
" />
</g>
<g style="fill:#000000; fill-opacity:0.0; 
stroke:#000000; stroke-width:78.7402; stroke-opacity:1; 
stroke-linecap:round; stroke-linejoin:round;">
<path d="M29500 24500
L30500 24500
" />
<path d="M32500 24500
L31500 24500
" />
<path d="M29500 25500
L30500 25500
" />
<path d="M32500 25500
L31500 25500
" />
<path d="M29500 26500
L30500 26500
" />
<path d="M32500 26500
L31500 26500
" />
<path d="M29500 27500
L30500 27500
" />
<path d="M32500 27500
L31500 27500
" />
<path d="M29500 28500
L30500 28500
" />
<path d="M32500 28500
L31500 28500
" />
<path d="M29500 30500
L30500 30500
" />
<path d="M32500 30500
L31500 30500
" />
<path d="M29500 31500
L30500 31500
" />
<path d="M31565 31500
L31500 31500
" />
<path d="M33869 30250
L34106 30250
" />
<path d="M32959 31160
L33869 30250
" />
<path d="M31839 31160
L32959 31160
" />
</g>
<g style="fill:#000000; fill-opacity:0.0; 
stroke:#000000; stroke-width:118.11; stroke-opacity:1; 
stroke-linecap:round; stroke-linejoin:round;">
<path d="M31500 31500
L31839 31160
" />
</g>
<g style="fill:#000000; fill-opacity:0.0; 
stroke:#000000; stroke-width:78.7402; stroke-opacity:1; 
stroke-linecap:round; stroke-linejoin:round;">
<path d="M34106 32250
L33869 32250
" />
<path d="M33869 32250
L33619 32000
" />
<path d="M33619 32000
L31000 32000
" />
<path d="M31000 32000
L30839 32160
" />
</g>
<g style="fill:#000000; fill-opacity:0.0; 
stroke:#000000; stroke-width:118.11; stroke-opacity:1; 
stroke-linecap:round; stroke-linejoin:round;">
<path d="M30839 32160
L30500 32500
" />
</g>
<g style="fill:#000000; fill-opacity:0.0; 
stroke:#000000; stroke-width:78.7402; stroke-opacity:1; 
stroke-linecap:round; stroke-linejoin:round;">
<path d="M34106 33500
L34106 33421
" />
</g>
<g style="fill:#000000; fill-opacity:0.0; 
stroke:#000000; stroke-width:118.11; stroke-opacity:1; 
stroke-linecap:round; stroke-linejoin:round;">
<path d="M31980 32500
L31500 32500
" />
</g>
<g style="fill:#000000; fill-opacity:0.0; 
stroke:#000000; stroke-width:78.7402; stroke-opacity:1; 
stroke-linecap:round; stroke-linejoin:round;">
<path d="M32869 32500
L31980 32500
" />
<path d="M33869 33500
L32869 32500
" />
<path d="M34106 33500
L33869 33500
" />
<path d="M34106 35500
L33869 35500
" />
<path d="M33869 35500
L32864 34494
" />
<path d="M32864 34494
L32864 33325
" />
<path d="M32864 33325
L32539 33000
" />
<path d="M32539 33000
L31000 33000
" />
<path d="M31000 33000
L30839 33160
" />
</g>
<g style="fill:#000000; fill-opacity:0.0; 
stroke:#000000; stroke-width:118.11; stroke-opacity:1; 
stroke-linecap:round; stroke-linejoin:round;">
<path d="M30839 33160
L30500 33500
" />
</g>
<g style="fill:#000000; fill-opacity:0.0; 
stroke:#000000; stroke-width:78.7402; stroke-opacity:1; 
stroke-linecap:round; stroke-linejoin:round;">
<path d="M32500 33500
L31500 33500
" />
<path d="M29500 34500
L30500 34500
" />
<path d="M32500 34500
L31500 34500
" />
<path d="M29500 35500
L30500 35500
" />
<path d="M32500 35500
L31500 35500
" />
<path d="M29500 36500
L30500 36500
" />
<path d="M32500 36500
L31500 36500
" />
<path d="M29500 37500
L30500 37500
" />
<path d="M35814 25456
L34000 25456
" />
<path d="M36250 25892
L35814 25456
" />
<path d="M34000 25456
L34000 26106
" />
<path d="M36250 26050
L36250 25892
" />
<path d="M34000 24894
L34000 25456
" />
</g>
<g style="fill:#000000; fill-opacity:0.0; 
stroke:#000000; stroke-width:118.11; stroke-opacity:1; 
stroke-linecap:round; stroke-linejoin:round;">
<path d="M36250 26500
L36250 26050
" />
<path d="M36500 26750
L36250 26500
" />
<path d="M37270 26750
L36500 26750
" />
<path d="M37724 26296
L37270 26750
" />
<path d="M38000 26296
L37724 26296
" />
</g>
<g style="fill:#000000; fill-opacity:1.0; 
stroke:#000000; stroke-width:39.3701; stroke-opacity:1; 
stroke-linecap:round; stroke-linejoin:round;">
<polyline style="fill-rule:evenodd;"
points="35977,37685
32592,41070
32602,41047
32602,40885
32540,40736
32426,40622
32277,40560
32116,40560
32004,40606
32023,40510
32023,40489
31983,40289
31870,40119
31700,40005
31670,40000
31700,39994
31870,39880
31983,39710
32023,39510
32023,39489
31983,39289
31870,39119
31727,39024
31769,39007
31942,38865
32048,38668
32013,38580
31580,38580
31580,38588
31419,38588
31419,38580
31411,38580
31411,38419
31419,38419
31419,38411
31580,38411
31580,38419
32013,38419
32045,38340
32181,38476
32181,38476
32248,38521
32328,38537
34924,38537
34924,38537
34924,38537
35003,38521
35071,38476
35976,37571
35976,37571
35976,37571
35977,37569
35977,37685
" /> 
<polyline style="fill-rule:evenodd;"
points="41566,28291
41426,28291
41407,28246
41359,28198
41297,28173
41230,28173
40836,28173
40774,28198
40726,28246
40707,28291
38009,28291
38009,27974
37984,27912
37936,27864
37874,27838
37806,27838
36625,27838
36563,27864
36515,27912
36490,27974
36490,28041
36490,28961
36003,29228
35981,29247
35956,29264
35950,29273
35941,29281
35927,29307
35911,29331
35909,29343
35904,29353
35901,29382
35895,29411
35895,34274
35893,34270
35855,34232
35855,32719
35855,30119
35793,29970
35680,29856
35531,29794
35369,29794
35220,29856
35176,29899
35147,29870
35102,29851
35102,29714
35164,29714
35226,29688
35274,29640
35300,29578
35300,29511
35300,28921
35274,28859
35226,28811
35164,28785
35097,28785
34585,28785
34540,28804
34505,28768
34455,28748
34455,27095
34455,27027
34455,26760
34455,26692
34422,26612
34360,26550
34279,26516
34192,26516
34135,26516
34080,26571
34080,26815
34400,26815
34455,26760
34455,27027
34400,26972
34080,26972
34080,27216
34135,27271
34192,27271
34279,27271
34360,27237
34422,27175
34455,27095
34455,28748
34424,28735
34260,28735
34205,28790
34205,29169
34213,29169
34213,29330
34205,29330
34205,29709
34260,29764
34424,29764
34505,29731
34540,29695
34585,29714
34652,29714
34685,29714
34685,29851
34640,29870
34592,29918
34567,29980
34567,30047
34567,30519
34592,30581
34640,30629
34702,30655
34770,30655
35085,30655
35147,30629
35195,30581
35213,30537
35219,30543
35368,30605
35530,30605
35679,30543
35793,30430
35855,30281
35855,30119
35855,32719
35793,32570
35680,32456
35531,32394
35369,32394
35288,32427
35220,32360
35220,31980
35195,31918
35147,31870
35102,31851
35102,31714
35164,31714
35226,31688
35274,31640
35300,31578
35300,31511
35300,30921
35274,30859
35226,30811
35164,30785
35097,30785
34585,30785
34540,30804
34505,30768
34424,30735
34260,30735
34205,30790
34205,31169
34213,31169
34213,31330
34205,31330
34205,31709
34260,31764
34424,31764
34505,31731
34540,31695
34585,31714
34652,31714
34685,31714
34685,31851
34640,31870
34592,31918
34567,31980
34567,32047
34567,32519
34592,32581
34640,32629
34702,32655
34770,32655
34925,32655
35044,32774
35044,32880
35106,33029
35219,33143
35368,33205
35530,33205
35679,33143
35793,33030
35855,32881
35855,32719
35855,34232
35780,34156
35631,34094
35469,34094
35320,34156
35300,34176
35300,34171
35274,34109
35226,34061
35164,34035
35097,34035
35083,34035
35083,33905
35085,33905
35147,33879
35195,33831
35220,33769
35220,33702
35220,33230
35195,33168
35147,33120
35085,33094
35017,33094
34702,33094
34640,33120
34592,33168
34567,33230
34567,33297
34567,33769
34592,33831
34640,33879
34666,33890
34666,34035
34585,34035
34540,34054
34505,34018
34424,33985
34260,33985
34205,34040
34205,34419
34213,34419
34213,34580
34205,34580
34205,34959
34260,35014
34424,35014
34505,34981
34540,34945
34585,34964
34652,34964
35164,34964
35226,34938
35274,34890
35300,34828
35300,34823
35319,34843
35468,34905
35630,34905
35679,34885
35635,34950
35620,35029
35620,35029
35620,37337
35300,37657
35300,36828
35300,36761
35300,36171
35274,36109
35226,36061
35164,36035
35102,36035
35102,35898
35147,35879
35195,35831
35220,35769
35220,35702
35220,35230
35195,35168
35147,35120
35085,35094
35017,35094
34702,35094
34640,35120
34592,35168
34567,35230
34567,35297
34567,35769
34592,35831
34640,35879
34685,35898
34685,36035
34585,36035
34540,36054
34505,36018
34424,35985
34260,35985
34205,36040
34205,36419
34213,36419
34213,36580
34205,36580
34205,36959
34260,37014
34424,37014
34505,36981
34540,36945
34585,36964
34652,36964
34809,36964
34809,37094
34669,37094
34520,37156
34406,37269
34344,37418
34344,37580
34406,37729
34519,37843
34668,37905
34830,37905
34979,37843
35093,37730
35155,37581
35155,37419
35146,37398
35165,37379
35165,37379
35165,37379
35210,37311
35226,37231
35226,37231
35226,37231
35226,36938
35226,36938
35274,36890
35300,36828
35300,37657
34837,38120
34044,38120
34044,36959
34044,36580
34044,36419
34044,36040
33989,35985
33825,35985
33744,36018
33682,36080
33649,36161
33649,36248
33649,36364
33704,36419
34044,36419
34044,36580
33704,36580
33649,36635
33649,36751
33649,36838
33682,36919
33744,36981
33825,37014
33989,37014
34044,36959
34044,38120
32415,38120
31987,37692
31987,37692
31987,37692
32023,37510
32023,37489
31983,37289
31870,37119
31700,37005
31670,37000
31700,36994
31870,36880
31983,36710
31984,36708
32159,36708
32165,36723
32276,36834
32421,36894
32578,36894
32723,36834
32834,36723
32894,36578
32894,36421
32834,36276
32723,36165
32578,36105
32421,36105
32276,36165
32165,36276
32159,36291
31984,36291
31983,36289
31870,36119
31700,36005
31670,36000
31700,35994
31870,35880
31983,35710
31984,35708
32159,35708
32165,35723
32276,35834
32421,35894
32578,35894
32723,35834
32834,35723
32894,35578
32894,35421
32834,35276
32723,35165
32578,35105
32421,35105
32276,35165
32165,35276
32159,35291
31984,35291
31983,35289
31870,35119
31700,35005
31670,35000
31700,34994
31870,34880
31983,34710
31984,34708
32159,34708
32165,34723
32276,34834
32421,34894
32578,34894
32723,34834
32816,34741
33722,35647
33722,35647
33722,35647
33779,35685
33779,35769
33804,35831
33852,35879
33914,35905
33982,35905
34297,35905
34359,35879
34407,35831
34432,35769
34432,35702
34432,35230
34407,35168
34359,35120
34297,35094
34229,35094
34044,35094
34044,34959
34044,34580
34044,34419
34044,34040
33989,33985
33825,33985
33744,34018
33682,34080
33649,34161
33649,34248
33649,34364
33704,34419
34044,34419
34044,34580
33704,34580
33649,34635
33649,34751
33649,34838
33682,34919
33744,34981
33825,35014
33989,35014
34044,34959
34044,35094
33914,35094
33852,35120
33818,35154
33073,34408
33073,33325
33057,33245
33011,33177
33011,33177
32707,32873
32639,32827
32559,32811
32559,32811
31916,32811
31971,32728
31980,32728
32068,32710
32071,32708
32783,32708
33722,33647
33722,33647
33762,33674
33779,33685
33779,33769
33804,33831
33852,33879
33914,33905
33982,33905
34297,33905
34359,33879
34407,33831
34432,33769
34432,33702
34432,33230
34407,33168
34359,33120
34297,33094
34229,33094
33914,33094
33852,33120
33818,33154
33017,32352
32949,32307
32869,32291
32869,32291
32071,32291
32068,32289
31980,32271
31971,32271
31943,32229
33553,32229
33722,32397
33722,32397
33779,32435
33779,32519
33804,32581
33852,32629
33914,32655
33982,32655
34297,32655
34359,32629
34407,32581
34432,32519
34432,32452
34432,31980
34407,31918
34359,31870
34297,31844
34229,31844
34044,31844
34044,31709
34044,31330
34044,31169
34044,30790
33989,30735
33825,30735
33744,30768
33682,30830
33649,30911
33649,30998
33649,31114
33704,31169
34044,31169
34044,31330
33704,31330
33649,31385
33649,31501
33649,31588
33682,31669
33744,31731
33825,31764
33989,31764
34044,31709
34044,31844
33914,31844
33852,31870
33818,31904
33787,31873
33720,31827
33640,31811
33640,31811
31916,31811
31983,31710
32023,31510
32023,31489
31999,31368
32959,31368
32959,31368
32959,31368
33039,31352
33107,31307
33818,30595
33852,30629
33914,30655
33982,30655
34297,30655
34359,30629
34407,30581
34432,30519
34432,30452
34432,29980
34407,29918
34359,29870
34297,29844
34229,29844
34044,29844
34044,29709
34044,29330
34044,29169
34044,28790
33989,28735
33825,28735
33744,28768
33682,28830
33649,28911
33649,28998
33649,29114
33704,29169
34044,29169
34044,29330
33704,29330
33649,29385
33649,29501
33649,29588
33682,29669
33744,29731
33825,29764
33989,29764
34044,29709
34044,29844
33914,29844
33852,29870
33804,29918
33779,29980
33779,30047
33779,30064
33722,30102
33722,30102
32873,30951
31930,30951
31927,30949
31839,30931
31774,30944
31870,30880
31983,30710
31984,30708
32159,30708
32165,30723
32276,30834
32421,30894
32578,30894
32723,30834
32834,30723
32894,30578
32894,30421
32834,30276
32723,30165
32578,30105
32421,30105
32276,30165
32165,30276
32159,30291
31984,30291
31983,30289
31870,30119
31727,30024
31769,30007
31942,29865
32048,29668
32013,29580
31580,29580
31580,29588
31419,29588
31419,29580
31411,29580
31411,29419
31419,29419
31419,29411
31580,29411
31580,29419
32013,29419
32048,29331
31993,29229
32729,29229
32729,29229
32729,29229
32809,29213
32876,29168
33497,28547
33497,28547
33497,28547
33542,28479
33558,28400
33558,28400
33558,28399
33558,27129
33577,27175
33639,27237
33720,27271
33807,27271
33864,27271
33919,27216
33919,26972
33911,26972
33911,26815
33919,26815
33919,26571
33864,26516
33807,26516
33720,26516
33639,26550
33577,26612
33558,26658
33558,24842
33594,24806
33594,25085
33620,25147
33668,25195
33730,25220
33791,25220
33791,25456
33791,25779
33730,25779
33668,25804
33620,25852
33594,25914
33594,25982
33594,26297
33620,26359
33668,26407
33730,26432
33797,26432
34269,26432
34331,26407
34379,26359
34405,26297
34405,26229
34405,25914
34379,25852
34331,25804
34269,25779
34208,25779
34208,25665
35001,25665
34988,25678
34962,25740
34962,25808
34962,26359
34988,26421
35001,26434
35001,26700
35020,26794
35074,26875
35624,27425
35624,27425
35664,27452
35705,27479
35705,27479
35800,27498
37674,27498
37769,27593
37918,27655
38054,27655
38090,27691
38171,27745
38171,27745
38266,27764
39490,27764
39490,28025
39515,28087
39563,28135
39625,28161
39693,28161
40874,28161
40936,28135
40984,28087
41009,28025
41009,27958
41009,27764
41326,27764
41566,28064
41566,28291
" /> 
<polyline style="fill-rule:evenodd;"
points="52311,44811
49559,44811
49559,36883
49559,36635
49559,36364
49559,36116
49526,36035
49464,35973
49383,35940
49328,35940
49430,35857
49534,35665
49498,35580
49080,35580
49080,35588
48919,35588
48919,35580
48911,35580
48911,35419
48919,35419
48919,35411
49080,35411
49080,35419
49498,35419
49534,35334
49430,35142
49260,35004
49249,35000
49260,34995
49430,34857
49534,34665
49498,34580
49080,34580
49080,34588
48919,34588
48919,34580
48911,34580
48911,34419
48919,34419
48919,34411
49080,34411
49080,34419
49498,34419
49534,34334
49430,34142
49260,34004
49249,34000
49260,33995
49430,33857
49534,33665
49534,33334
49430,33142
49260,33004
49165,32965
49080,33001
49080,33419
49498,33419
49534,33334
49534,33665
49498,33580
49080,33580
49080,33588
48919,33588
48919,33580
48911,33580
48911,33419
48919,33419
48919,33001
48834,32965
48739,33004
48569,33142
48474,33316
48470,33295
48360,33129
48208,33028
48208,31869
48208,31869
48208,31869
48192,31789
48147,31722
48147,31722
48147,31722
46777,30352
46720,30314
46720,30230
46695,30168
46647,30120
46602,30101
46602,29213
46602,29213
46602,29213
46586,29133
46541,29065
46499,29023
46499,28964
46513,28950
46539,28888
46539,28820
46539,28111
46513,28049
46499,28035
46499,27650
44900,27650
44900,28000
44896,28001
44848,28049
44822,28111
44822,28179
44822,28888
44848,28950
44896,28998
44900,28999
44900,29449
46185,29449
46185,30101
46140,30120
46092,30168
46067,30230
46067,30297
46067,30769
46092,30831
46140,30879
46202,30905
46270,30905
46585,30905
46647,30879
46681,30845
47791,31956
47791,33028
47639,33129
47529,33295
47490,33490
47490,33509
47529,33704
47604,33817
47552,33852
47507,33920
47491,34000
47507,34079
47552,34147
47604,34182
47532,34291
47267,34291
46499,33523
46499,33464
46513,33450
46539,33388
46539,33320
46539,32611
46513,32549
46499,32535
46499,32100
45983,32100
45983,30779
45983,30692
45983,30635
45983,30364
45983,30307
45983,30220
45949,30139
45887,30077
45807,30044
45739,30044
45684,30099
45684,30419
45928,30419
45983,30364
45983,30635
45928,30580
45684,30580
45684,30900
45739,30955
45807,30955
45887,30922
45949,30860
45983,30779
45983,32100
45527,32100
45527,30900
45527,30580
45527,30419
45527,30099
45472,30044
45404,30044
45324,30077
45262,30139
45228,30220
45228,30307
45228,30364
45283,30419
45527,30419
45527,30580
45283,30580
45228,30635
45228,30692
45228,30779
45262,30860
45324,30922
45404,30955
45472,30955
45527,30900
45527,32100
44950,32100
44950,32479
44896,32501
44848,32549
44822,32611
44822,32679
44822,33388
44848,33450
44896,33498
44950,33520
44950,33899
46285,33899
46885,34499
46701,34684
46695,34668
46647,34620
46585,34594
46517,34594
46202,34594
46140,34620
46092,34668
46067,34730
46067,34797
46067,35269
46092,35331
46140,35379
46202,35405
46270,35405
46585,35405
46647,35379
46695,35331
46720,35269
46720,35202
46720,35200
46760,35192
46828,35147
47267,34708
47532,34708
47588,34793
47520,34807
47452,34852
47407,34920
47391,35000
47407,35079
47452,35147
47520,35192
47588,35206
47558,35251
47400,35251
47305,35270
47224,35324
47170,35405
47163,35441
46004,36600
45983,36600
45983,35279
45983,35192
45983,35135
45983,34864
45983,34807
45983,34720
45949,34639
45887,34577
45807,34544
45739,34544
45684,34599
45684,34919
45928,34919
45983,34864
45983,35135
45928,35080
45684,35080
45684,35400
45739,35455
45807,35455
45887,35422
45949,35360
45983,35279
45983,36600
45527,36600
45527,35400
45527,35080
45527,34919
45527,34599
45472,34544
45404,34544
45324,34577
45262,34639
45228,34720
45228,34807
45228,34864
45283,34919
45527,34919
45527,35080
45283,35080
45228,35135
45228,35192
45228,35279
45262,35360
45324,35422
45404,35455
45472,35455
45527,35400
45527,36600
44950,36600
44950,36979
44896,37001
44848,37049
44822,37111
44822,37179
44822,37888
44848,37950
44896,37998
44950,38020
44950,38399
46185,38399
46185,39101
46140,39120
46092,39168
46067,39230
46067,39297
46067,39769
46092,39831
46140,39879
46202,39905
46270,39905
46585,39905
46647,39879
46695,39831
46720,39769
46720,39702
46720,39230
46695,39168
46647,39120
46602,39101
46602,38213
46602,38213
46602,38213
46586,38133
46541,38065
46499,38023
46499,37964
46513,37950
46539,37888
46539,37820
46539,37111
46513,37049
46499,37035
46499,36695
47447,35748
47558,35748
47587,35791
47500,35791
47420,35807
47352,35852
47307,35920
47291,36000
47307,36079
47352,36147
47420,36192
47500,36208
47587,36208
47529,36295
47490,36490
47490,36509
47529,36704
47639,36870
47791,36971
47791,39594
46285,41100
45983,41100
45983,39779
45983,39692
45983,39635
45983,39364
45983,39307
45983,39220
45949,39139
45887,39077
45807,39044
45739,39044
45684,39099
45684,39419
45928,39419
45983,39364
45983,39635
45928,39580
45684,39580
45684,39900
45739,39955
45807,39955
45887,39922
45949,39860
45983,39779
45983,41100
45527,41100
45527,39900
45527,39580
45527,39419
45527,39099
45472,39044
45404,39044
45324,39077
45262,39139
45228,39220
45228,39307
45228,39364
45283,39419
45527,39419
45527,39580
45283,39580
45228,39635
45228,39692
45228,39779
45262,39860
45324,39922
45404,39955
45472,39955
45527,39900
45527,41100
44950,41100
44950,41479
44896,41501
44848,41549
44822,41611
44822,41679
44822,42388
44848,42450
44896,42498
44950,42520
44950,42899
46185,42899
46185,43601
46140,43620
46092,43668
46067,43730
46067,43797
46067,44269
46092,44331
46140,44379
46202,44405
46270,44405
46585,44405
46647,44379
46695,44331
46720,44269
46720,44202
46720,43730
46695,43668
46647,43620
46602,43601
46602,42713
46602,42713
46602,42713
46586,42633
46541,42565
46499,42523
46499,42464
46513,42450
46539,42388
46539,42320
46539,41611
46513,41549
46499,41535
46499,41476
48147,39828
48147,39828
48147,39828
48192,39760
48208,39681
48208,39681
48208,39680
48208,36971
48360,36870
48440,36750
48440,36883
48473,36964
48535,37026
48616,37059
48703,37059
48864,37059
48919,37004
48919,36580
48911,36580
48911,36419
48919,36419
48919,36411
49080,36411
49080,36419
49504,36419
49559,36364
49559,36635
49504,36580
49080,36580
49080,37004
49135,37059
49296,37059
49383,37059
49464,37026
49526,36964
49559,36883
49559,44811
45983,44811
45983,44279
45983,44192
45983,44135
45983,43864
45983,43807
45983,43720
45949,43639
45887,43577
45807,43544
45739,43544
45684,43599
45684,43919
45928,43919
45983,43864
45983,44135
45928,44080
45684,44080
45684,44400
45739,44455
45807,44455
45887,44422
45949,44360
45983,44279
45983,44811
45527,44811
45527,44400
45527,44080
45527,43919
45527,43599
45472,43544
45404,43544
45324,43577
45262,43639
45228,43720
45228,43807
45228,43864
45283,43919
45527,43919
45527,44080
45283,44080
45228,44135
45228,44192
45228,44279
45262,44360
45324,44422
45404,44455
45472,44455
45527,44400
45527,44811
44299,44811
44299,38399
44299,36600
42500,36600
42500,37035
42486,37049
42460,37111
42460,37179
42460,37291
42299,37291
42299,37248
42299,36933
42273,36871
42225,36823
42220,36821
42228,36782
42228,36392
42230,36392
42292,36366
42340,36318
42366,36256
42366,36189
42366,35835
42347,35790
42383,35755
42416,35674
42416,35589
42416,35318
42416,35233
42383,35152
42349,35119
42349,33576
42349,33508
42294,33453
42013,33453
42013,33697
42068,33752
42086,33752
42173,33752
42254,33718
42316,33656
42349,33576
42349,35119
42321,35090
42240,35057
42153,35057
42135,35057
42080,35112
42080,35373
42361,35373
42416,35318
42416,35589
42361,35534
42080,35534
42080,35542
41919,35542
41919,35534
41919,35373
41919,35112
41864,35057
41852,35057
41852,33697
41852,33453
41571,33453
41516,33508
41516,33576
41549,33656
41611,33718
41692,33752
41779,33752
41797,33752
41852,33697
41852,35057
41846,35057
41759,35057
41678,35090
41616,35152
41583,35233
41583,35318
41638,35373
41919,35373
41919,35534
41638,35534
41583,35589
41583,35674
41616,35755
41652,35790
41633,35835
41633,35902
41633,36256
41639,36271
41060,36271
41060,34535
41060,34135
41005,34080
40330,34080
40330,34656
40385,34711
40796,34711
40884,34711
40964,34678
41026,34616
41060,34535
41060,36271
41009,36271
41009,35974
40984,35912
40936,35864
40874,35838
40806,35838
40169,35838
40169,34656
40169,34080
40169,33919
40169,33343
40114,33288
39703,33288
39615,33288
39535,33321
39473,33383
39439,33464
39439,33864
39494,33919
40169,33919
40169,34080
39494,34080
39439,34135
39439,34535
39473,34616
39535,34678
39615,34711
39703,34711
40114,34711
40169,34656
40169,35838
39625,35838
39563,35864
39515,35912
39490,35974
39490,35975
38885,35370
38843,35270
38730,35156
38581,35094
38419,35094
38270,35156
38156,35269
38094,35418
38094,35580
38156,35729
38269,35843
38418,35905
38580,35905
38678,35865
39488,36675
39488,36675
39490,36676
39490,37025
39515,37087
39563,37135
39625,37161
39693,37161
40874,37161
40936,37135
40984,37087
41009,37025
41009,36958
41009,36728
41744,36728
41722,36762
41714,36798
41702,36798
41640,36823
41592,36871
41566,36933
41566,37001
41566,37291
41426,37291
41407,37246
41359,37198
41297,37173
41230,37173
40836,37173
40774,37198
40726,37246
40707,37291
38009,37291
38009,36974
37984,36912
37936,36864
37874,36838
37806,36838
36625,36838
36563,36864
36515,36912
36490,36974
36490,37041
36490,38025
36515,38087
36563,38135
36625,38161
36693,38161
36755,38161
32625,42291
31984,42291
31983,42289
31916,42188
31978,42188
31978,42188
31978,42188
32058,42172
32126,42126
36333,37919
36333,37919
36333,37919
36379,37851
36394,37772
36394,35300
37397,34297
37397,34297
37397,34297
37442,34229
37458,34150
37458,34150
37458,34149
37458,33661
37874,33661
37936,33635
37984,33587
38009,33525
38009,33458
38009,33208
40707,33208
40726,33253
40761,33288
40385,33288
40330,33343
40330,33919
41005,33919
41060,33864
41060,33464
41026,33383
40970,33326
41297,33326
41359,33301
41407,33253
41426,33208
41516,33208
41516,33241
41571,33296
41852,33296
41852,33286
42013,33286
42013,33296
42294,33296
42349,33241
42349,33208
42460,33208
42460,33388
42486,33450
42500,33464
42500,33899
44299,33899
44299,32100
42500,32100
42500,32535
42486,32549
42460,32611
42460,32679
42460,32791
42299,32791
42299,32748
42299,32433
42273,32371
42228,32326
42228,31966
42228,31892
42230,31892
42292,31866
42340,31818
42366,31756
42366,31689
42366,31335
42347,31290
42383,31255
42416,31174
42416,31089
42416,30818
42416,30733
42383,30652
42349,30619
42349,29076
42349,29008
42294,28953
42013,28953
42013,29197
42068,29252
42086,29252
42173,29252
42254,29218
42316,29156
42349,29076
42349,30619
42321,30590
42240,30557
42153,30557
42135,30557
42080,30612
42080,30873
42361,30873
42416,30818
42416,31089
42361,31034
42080,31034
42080,31042
41919,31042
41919,31034
41919,30873
41919,30612
41864,30557
41852,30557
41852,29197
41852,28953
41571,28953
41516,29008
41516,29076
41549,29156
41611,29218
41692,29252
41779,29252
41797,29252
41852,29197
41852,30557
41846,30557
41759,30557
41678,30590
41616,30652
41583,30733
41583,30818
41638,30873
41919,30873
41919,31034
41638,31034
41583,31089
41583,31174
41616,31255
41652,31290
41633,31335
41633,31402
41633,31756
41639,31771
41060,31771
41060,30035
41060,29635
41005,29580
40330,29580
40330,30156
40385,30211
40796,30211
40884,30211
40964,30178
41026,30116
41060,30035
41060,31771
41009,31771
41009,31474
40984,31412
40936,31364
40874,31338
40806,31338
40169,31338
40169,30156
40169,29580
40169,29419
40169,28843
40114,28788
39703,28788
39615,28788
39535,28821
39473,28883
39439,28964
39439,29364
39494,29419
40169,29419
40169,29580
39494,29580
39439,29635
39439,30035
39473,30116
39535,30178
39615,30211
39703,30211
40114,30211
40169,30156
40169,31338
39625,31338
39563,31364
39515,31412
39490,31474
39490,31478
39142,31155
38904,30918
38843,30770
38730,30656
38581,30594
38419,30594
38270,30656
38156,30769
38094,30918
38094,31080
38156,31229
38269,31343
38418,31405
38580,31405
38697,31357
38822,31481
38826,31484
38828,31487
39490,32101
39490,32525
39515,32587
39563,32635
39625,32661
39693,32661
40874,32661
40936,32635
40984,32587
41009,32525
41009,32458
41009,32228
41771,32228
41771,32298
41702,32298
41640,32323
41592,32371
41566,32433
41566,32501
41566,32791
41426,32791
41407,32746
41359,32698
41297,32673
41230,32673
40836,32673
40774,32698
40726,32746
40707,32791
38009,32791
38009,32474
37984,32412
37936,32364
37874,32338
37806,32338
36625,32338
36563,32364
36515,32412
36490,32474
36490,32541
36490,33525
36515,33587
36563,33635
36625,33661
36693,33661
37041,33661
37041,34063
36303,34801
36312,34754
36312,34754
36312,34754
36312,29535
36994,29161
37874,29161
37936,29135
37984,29087
38009,29025
38009,28958
38009,28708
40707,28708
40726,28753
40761,28788
40385,28788
40330,28843
40330,29419
41005,29419
41060,29364
41060,28964
41026,28883
40970,28826
41297,28826
41359,28801
41407,28753
41426,28708
41516,28708
41516,28741
41571,28796
41852,28796
41852,28786
42013,28786
42013,28796
42294,28796
42349,28741
42349,28708
42460,28708
42460,28888
42486,28950
42500,28964
42500,29399
44049,29399
44049,29020
44103,28998
44151,28950
44177,28888
44177,28820
44177,28111
44151,28049
44103,28001
44049,27979
44049,27600
42500,27600
42500,28035
42486,28049
42460,28111
42460,28179
42460,28291
42299,28291
42299,28248
42299,27933
42273,27871
42228,27826
42228,26642
42230,26642
42292,26616
42340,26568
42366,26506
42366,26439
42366,26085
42347,26040
42383,26005
42416,25924
42416,25839
42416,25568
42416,25483
42383,25402
42321,25340
42240,25307
42153,25307
42135,25307
42080,25362
42080,25623
42361,25623
42416,25568
42416,25839
42361,25784
42080,25784
42080,25792
41919,25792
41919,25784
41919,25623
41919,25362
41864,25307
41846,25307
41759,25307
41678,25340
41616,25402
41583,25483
41583,25568
41638,25623
41919,25623
41919,25784
41638,25784
41583,25839
41583,25924
41616,26005
41652,26040
41633,26085
41633,26152
41633,26506
41659,26568
41707,26616
41769,26642
41771,26642
41771,27526
41626,27345
41616,27336
41608,27324
41579,27305
41552,27282
41539,27278
41527,27270
41493,27264
41460,27253
41446,27254
41433,27251
41417,27251
41370,27261
41370,27261
41363,27261
41361,27262
41336,27267
41009,27267
41009,26974
40984,26912
40936,26864
40874,26838
40806,26838
39625,26838
39563,26864
39515,26912
39490,26974
39490,27041
39490,27267
38405,27267
38405,27169
38343,27020
38230,26906
38081,26844
37919,26844
37770,26906
37674,27001
35902,27001
35498,26597
35498,26434
35500,26432
35536,26469
35598,26494
35665,26494
35901,26494
35963,26469
36000,26432
36021,26454
36021,26500
36039,26587
36088,26661
36338,26911
36412,26960
36500,26978
37270,26978
37357,26960
37357,26960
37431,26911
37720,26622
37769,26642
37836,26642
38230,26642
38292,26616
38340,26568
38366,26506
38366,26439
38366,26085
38347,26040
38383,26005
38416,25924
38416,25839
38416,25568
38416,25483
38416,25016
38416,24931
38361,24876
38080,24876
38080,25137
38135,25192
38153,25192
38240,25192
38321,25159
38383,25097
38416,25016
38416,25483
38383,25402
38321,25340
38240,25307
38153,25307
38135,25307
38080,25362
38080,25623
38361,25623
38416,25568
38416,25839
38361,25784
38080,25784
38080,25792
37919,25792
37919,25784
37919,25623
37919,25362
37919,25137
37919,24876
37638,24876
37583,24931
37583,25016
37616,25097
37678,25159
37759,25192
37846,25192
37864,25192
37919,25137
37919,25362
37864,25307
37846,25307
37759,25307
37678,25340
37616,25402
37583,25483
37583,25568
37638,25623
37919,25623
37919,25784
37638,25784
37583,25839
37583,25924
37616,26005
37652,26040
37633,26085
37633,26087
37562,26134
37175,26521
36968,26521
36992,26511
37054,26449
37087,26369
37087,26281
37087,26185
37087,25914
37087,25818
37087,25730
37054,25650
36992,25588
36911,25554
36863,25554
36809,25609
36809,25969
37032,25969
37087,25914
37087,26185
37032,26130
36809,26130
36809,26138
36691,26138
36691,26130
36661,26130
36661,25969
36691,25969
36691,25609
36636,25554
36588,25554
36507,25588
36464,25631
36463,25630
36401,25605
36334,25605
36257,25605
35961,25309
35893,25263
35814,25247
35814,25247
34208,25247
34208,25220
34269,25220
34331,25195
34379,25147
34405,25085
34405,25017
34405,24702
34379,24640
34331,24592
34269,24567
34202,24567
33833,24567
33968,24432
34269,24432
34331,24407
34379,24359
34389,24334
34394,24334
34481,24316
34481,24316
34555,24267
34644,24178
34962,24178
34962,24259
34988,24321
35035,24368
35039,24387
35088,24461
35288,24661
35362,24710
35362,24710
35450,24728
37450,24728
37537,24710
37537,24710
37595,24672
37638,24715
37919,24715
37919,24707
38080,24707
38080,24715
38361,24715
38416,24660
38416,24575
38383,24494
38347,24459
38366,24414
38366,24347
38366,23993
38340,23931
38292,23883
38230,23857
38163,23857
37769,23857
37707,23883
37659,23931
37633,23993
37633,24009
37584,24042
37355,24271
37032,24271
37037,24259
37037,24191
37037,23640
37011,23578
36963,23530
36901,23505
36834,23505
36598,23505
36536,23530
36500,23567
36463,23530
36401,23505
36334,23505
36098,23505
36036,23530
36000,23567
35963,23530
35901,23505
35834,23505
35598,23505
35536,23530
35500,23567
35463,23530
35401,23505
35334,23505
35098,23505
35036,23530
34988,23578
34962,23640
34962,23708
34962,23721
34550,23721
34462,23739
34388,23788
34351,23825
34331,23804
34269,23779
34202,23779
33730,23779
33668,23804
33620,23852
33594,23914
33594,23982
33594,24216
33202,24608
33157,24676
33141,24756
33141,24756
33141,28313
32894,28560
32894,28421
32834,28276
32723,28165
32578,28105
32421,28105
32276,28165
32165,28276
32159,28291
31984,28291
31983,28289
31870,28119
31700,28005
31670,28000
31700,27994
31870,27880
31983,27710
31984,27708
32159,27708
32165,27723
32276,27834
32421,27894
32578,27894
32723,27834
32834,27723
32894,27578
32894,27421
32834,27276
32723,27165
32578,27105
32421,27105
32276,27165
32165,27276
32159,27291
31984,27291
31983,27289
31870,27119
31700,27005
31670,27000
31700,26994
31870,26880
31983,26710
31984,26708
32159,26708
32165,26723
32276,26834
32421,26894
32578,26894
32723,26834
32834,26723
32894,26578
32894,26421
32834,26276
32723,26165
32578,26105
32421,26105
32276,26165
32165,26276
32159,26291
31984,26291
31983,26289
31870,26119
31700,26005
31670,26000
31700,25994
31870,25880
31983,25710
31984,25708
32159,25708
32165,25723
32276,25834
32421,25894
32578,25894
32723,25834
32834,25723
32894,25578
32894,25421
32834,25276
32723,25165
32578,25105
32421,25105
32276,25165
32165,25276
32159,25291
31984,25291
31983,25289
31870,25119
31700,25005
31670,25000
31700,24994
31870,24880
31983,24710
31984,24708
32159,24708
32165,24723
32276,24834
32421,24894
32578,24894
32723,24834
32834,24723
32894,24578
32894,24421
32834,24276
32723,24165
32578,24105
32421,24105
32276,24165
32165,24276
32159,24291
31984,24291
31983,24289
31870,24119
31700,24005
31500,23966
31299,24005
31129,24119
31016,24289
31009,24324
31009,24126
30983,24064
30935,24016
30873,23990
30806,23990
30126,23990
30064,24016
30016,24064
29990,24126
29990,24193
29990,24291
29840,24291
29834,24276
29723,24165
29578,24105
29421,24105
29276,24165
29165,24276
29105,24421
29105,24578
29165,24723
29276,24834
29421,24894
29578,24894
29723,24834
29834,24723
29840,24708
29990,24708
29990,24873
30016,24935
30064,24983
30126,25009
30193,25009
30294,25009
30129,25119
30016,25289
30015,25291
29840,25291
29834,25276
29723,25165
29578,25105
29421,25105
29276,25165
29165,25276
29105,25421
29105,25578
29165,25723
29276,25834
29421,25894
29578,25894
29723,25834
29834,25723
29840,25708
30015,25708
30016,25710
30129,25880
30299,25994
30329,26000
30299,26005
30129,26119
30016,26289
30015,26291
29840,26291
29834,26276
29723,26165
29578,26105
29421,26105
29276,26165
29165,26276
29105,26421
29105,26578
29165,26723
29276,26834
29421,26894
29578,26894
29723,26834
29834,26723
29840,26708
30015,26708
30016,26710
30129,26880
30299,26994
30329,27000
30299,27005
30129,27119
30016,27289
30015,27291
29840,27291
29834,27276
29723,27165
29578,27105
29421,27105
29276,27165
29165,27276
29105,27421
29105,27578
29165,27723
29276,27834
29421,27894
29578,27894
29723,27834
29834,27723
29840,27708
30015,27708
30016,27710
30129,27880
30299,27994
30329,28000
30299,28005
30129,28119
30016,28289
30015,28291
29840,28291
29834,28276
29723,28165
29578,28105
29421,28105
29276,28165
29165,28276
29105,28421
29105,28578
29165,28723
29276,28834
29421,28894
29578,28894
29723,28834
29834,28723
29840,28708
30015,28708
30016,28710
30129,28880
30299,28994
30329,29000
30299,29005
30129,29119
30016,29289
29976,29489
29976,29510
30016,29710
30129,29880
30299,29994
30329,30000
30299,30005
30129,30119
30016,30289
30015,30291
29840,30291
29834,30276
29723,30165
29578,30105
29421,30105
29276,30165
29165,30276
29105,30421
29105,30578
29165,30723
29276,30834
29421,30894
29578,30894
29723,30834
29834,30723
29840,30708
30015,30708
30016,30710
30129,30880
30299,30994
30329,31000
30299,31005
30129,31119
30016,31289
30015,31291
29840,31291
29834,31276
29723,31165
29578,31105
29421,31105
29276,31165
29165,31276
29105,31421
29105,31578
29165,31723
29276,31834
29421,31894
29578,31894
29723,31834
29834,31723
29840,31708
30015,31708
30016,31710
30129,31880
30299,31994
30329,32000
30299,32005
30129,32119
30016,32289
29976,32489
29976,32510
30016,32710
30129,32880
30299,32994
30329,33000
30299,33005
30129,33119
30016,33289
29976,33489
29976,33510
30016,33710
30129,33880
30299,33994
30329,34000
30299,34005
30129,34119
30016,34289
30015,34291
29840,34291
29834,34276
29723,34165
29578,34105
29421,34105
29276,34165
29165,34276
29105,34421
29105,34578
29165,34723
29276,34834
29421,34894
29578,34894
29723,34834
29834,34723
29840,34708
30015,34708
30016,34710
30129,34880
30299,34994
30329,35000
30299,35005
30129,35119
30016,35289
30015,35291
29840,35291
29834,35276
29723,35165
29578,35105
29421,35105
29276,35165
29165,35276
29105,35421
29105,35578
29165,35723
29276,35834
29421,35894
29578,35894
29723,35834
29834,35723
29840,35708
30015,35708
30016,35710
30129,35880
30299,35994
30329,36000
30299,36005
30129,36119
30016,36289
30015,36291
29840,36291
29834,36276
29723,36165
29578,36105
29421,36105
29276,36165
29165,36276
29105,36421
29105,36578
29165,36723
29276,36834
29421,36894
29578,36894
29723,36834
29834,36723
29840,36708
30015,36708
30016,36710
30129,36880
30299,36994
30329,37000
30299,37005
30129,37119
30016,37289
30015,37291
29840,37291
29834,37276
29723,37165
29578,37105
29421,37105
29276,37165
29165,37276
29105,37421
29105,37578
29165,37723
29276,37834
29421,37894
29578,37894
29723,37834
29834,37723
29840,37708
30015,37708
30016,37710
30129,37880
30299,37994
30329,38000
30299,38005
30129,38119
30016,38289
29976,38489
29976,38510
30011,38688
29980,38656
29831,38594
29669,38594
29520,38656
29406,38769
29344,38918
29344,39080
29406,39229
29519,39343
29668,39405
29830,39405
29979,39343
30000,39323
30007,39330
29976,39489
29976,39510
30016,39710
30129,39880
30299,39994
30329,40000
30299,40005
30129,40119
30016,40289
29976,40489
29976,40510
30016,40710
30129,40880
30299,40994
30329,41000
30299,41005
30129,41119
30016,41289
29976,41489
29976,41510
30016,41710
30129,41880
30299,41994
30329,42000
30299,42005
30133,42116
30093,42020
29980,41906
29831,41844
29669,41844
29520,41906
29406,42019
29344,42168
29344,42330
29406,42479
29519,42593
29668,42655
29804,42655
29824,42675
29905,42729
29905,42729
30000,42748
30041,42748
30129,42880
30299,42994
30329,43000
30299,43005
30129,43119
30016,43289
29976,43489
29976,43510
30016,43710
30129,43880
30299,43994
30500,44033
30652,44003
30662,44013
30656,44019
30594,44168
30594,44330
30656,44479
30769,44593
30918,44655
31080,44655
31229,44593
31343,44480
31405,44331
31405,44169
31343,44020
31321,43998
31500,44033
31700,43994
31870,43880
31901,43834
35390,43834
35411,43830
35433,43829
35451,43822
35470,43818
35488,43806
35508,43797
37169,42661
37874,42661
37936,42635
37984,42587
38009,42525
38009,42458
38009,42208
40707,42208
40726,42253
40761,42288
40385,42288
40330,42343
40330,42919
41005,42919
41060,42864
41060,42464
41026,42383
40970,42326
41297,42326
41359,42301
41407,42253
41426,42208
41516,42208
41516,42241
41571,42296
41852,42296
41852,42286
42013,42286
42013,42296
42294,42296
42349,42241
42349,42208
42460,42208
42460,42388
42486,42450
42500,42464
42500,42899
44049,42899
44049,42520
44103,42498
44151,42450
44177,42388
44177,42320
44177,41611
44151,41549
44103,41501
44049,41479
44049,41100
42500,41100
42500,41535
42486,41549
42460,41611
42460,41679
42460,41791
42299,41791
42299,41748
42299,41433
42273,41371
42225,41323
42163,41298
42161,41298
42161,41000
42161,40911
42161,40911
42174,40892
42230,40892
42292,40866
42340,40818
42366,40756
42366,40689
42366,40335
42347,40290
42383,40255
42416,40174
42416,40089
42416,39818
42416,39733
42383,39652
42349,39619
42349,38076
42349,38008
42294,37953
42013,37953
42013,38197
42068,38252
42086,38252
42173,38252
42254,38218
42316,38156
42349,38076
42349,39619
42321,39590
42240,39557
42153,39557
42135,39557
42080,39612
42080,39873
42361,39873
42416,39818
42416,40089
42361,40034
42080,40034
42080,40042
41919,40042
41919,40034
41919,39873
41919,39612
41864,39557
41852,39557
41852,38197
41852,37953
41571,37953
41516,38008
41516,38076
41549,38156
41611,38218
41692,38252
41779,38252
41797,38252
41852,38197
41852,39557
41846,39557
41759,39557
41678,39590
41616,39652
41583,39733
41583,39818
41638,39873
41919,39873
41919,40034
41638,40034
41583,40089
41583,40174
41616,40255
41652,40290
41633,40335
41633,40402
41633,40756
41639,40771
41060,40771
41060,39035
41060,38635
41005,38580
40330,38580
40330,39156
40385,39211
40796,39211
40884,39211
40964,39178
41026,39116
41060,39035
41060,40771
41009,40771
41009,40474
40984,40412
40936,40364
40874,40338
40806,40338
40169,40338
40169,39156
40169,38580
40169,38419
40169,37843
40114,37788
39703,37788
39615,37788
39535,37821
39473,37883
39439,37964
39439,38364
39494,38419
40169,38419
40169,38580
39494,38580
39439,38635
39439,39035
39473,39116
39535,39178
39615,39211
39703,39211
40114,39211
40169,39156
40169,40338
39625,40338
39563,40364
39515,40412
39490,40474
39490,40541
39490,40751
39070,40751
38748,40429
38748,40334
38748,40325
38843,40230
38905,40081
38905,39919
38843,39770
38730,39656
38581,39594
38419,39594
38270,39656
38156,39769
38094,39918
38094,40080
38156,40229
38251,40325
38251,40334
38251,40451
38243,40492
38247,40508
38243,40524
38262,40618
38316,40699
38792,41175
38792,41175
38832,41202
38873,41229
38873,41229
38968,41248
39490,41248
39490,41525
39515,41587
39563,41635
39625,41661
39693,41661
40874,41661
40936,41635
40984,41587
41009,41525
41009,41458
41009,41228
41704,41228
41704,41298
41702,41298
41640,41323
41592,41371
41566,41433
41566,41501
41566,41791
41426,41791
41407,41746
41359,41698
41297,41673
41230,41673
40836,41673
40774,41698
40726,41746
40707,41791
38009,41791
38009,41474
37984,41412
37936,41364
37874,41338
37806,41338
36625,41338
36563,41364
36515,41412
36490,41474
36490,41541
36490,42525
36515,42587
36524,42596
35325,43416
32009,43416
31983,43289
31870,43119
31700,43005
31670,43000
31700,42994
31870,42880
31983,42710
31984,42708
32711,42708
32711,42708
32711,42708
32791,42692
32859,42647
37163,38343
37163,38343
37163,38343
37208,38275
37224,38195
37224,38195
37224,38195
37224,38161
37874,38161
37936,38135
37984,38087
38009,38025
38009,37958
38009,37708
40707,37708
40726,37753
40761,37788
40385,37788
40330,37843
40330,38419
41005,38419
41060,38364
41060,37964
41026,37883
40970,37826
41297,37826
41359,37801
41407,37753
41426,37708
41516,37708
41516,37741
41571,37796
41852,37796
41852,37786
42013,37786
42013,37796
42294,37796
42349,37741
42349,37708
42460,37708
42460,37888
42486,37950
42500,37964
42500,38399
44299,38399
44299,44811
42349,44811
42349,42576
42349,42508
42294,42453
42013,42453
42013,42697
42068,42752
42086,42752
42173,42752
42254,42718
42316,42656
42349,42576
42349,44811
41852,44811
41852,42697
41852,42453
41571,42453
41516,42508
41516,42576
41549,42656
41611,42718
41692,42752
41779,42752
41797,42752
41852,42697
41852,44811
41060,44811
41060,43535
41060,43135
41005,43080
40330,43080
40330,43656
40385,43711
40796,43711
40884,43711
40964,43678
41026,43616
41060,43535
41060,44811
40169,44811
40169,43656
40169,43080
40169,42919
40169,42343
40114,42288
39703,42288
39615,42288
39535,42321
39473,42383
39439,42464
39439,42864
39494,42919
40169,42919
40169,43080
39494,43080
39439,43135
39439,43535
39473,43616
39535,43678
39615,43711
39703,43711
40114,43711
40169,43656
40169,44811
28688,44811
28688,44500
28688,23500
28688,23188
52311,23188
52311,44500
52311,44811
" /> 
</g>
<g style="fill:#FFFFFF; fill-opacity:1.0; 
stroke:#FFFFFF; stroke-width:39.3701; stroke-opacity:1; 
stroke-linecap:round; stroke-linejoin:round;">
<circle cx="40500" cy="30600" r="49.2126" /> 
<circle cx="33120.3" cy="43120.3" r="49.2126" /> 
<circle cx="40250" cy="35250" r="49.2126" /> 
<circle cx="40250" cy="39500" r="49.2126" /> 
<circle cx="42000" cy="43500" r="49.2126" /> 
<circle cx="44500" cy="44000" r="49.2126" /> 
<circle cx="44500" cy="30500" r="49.2126" /> 
<circle cx="44600" cy="35000" r="49.2126" /> 
<circle cx="44350" cy="39500" r="49.2126" /> 
<circle cx="32500" cy="42000" r="49.2126" /> 
<circle cx="34000" cy="27750" r="49.2126" /> 
<circle cx="33750" cy="37250" r="49.2126" /> 
<circle cx="33250" cy="31500" r="49.2126" /> 
<circle cx="33250" cy="34250" r="49.2126" /> 
<circle cx="32500" cy="29500" r="49.2126" /> 
<circle cx="33350" cy="36300" r="49.2126" /> 
<circle cx="32600" cy="39100" r="49.2126" /> 
<circle cx="38500" cy="25250" r="49.2126" /> 
<circle cx="35450" cy="30200" r="49.2126" /> 
<circle cx="29750" cy="39000" r="49.2126" /> 
<circle cx="35450" cy="32800" r="49.2126" /> 
<circle cx="32196.9" cy="40966" r="49.2126" /> 
<circle cx="35550" cy="34500" r="49.2126" /> 
<circle cx="29750" cy="42250" r="49.2126" /> 
<circle cx="31000" cy="44250" r="49.2126" /> 
<circle cx="34750" cy="37500" r="49.2126" /> 
<circle cx="38500" cy="40000" r="49.2126" /> 
<circle cx="38000" cy="27250" r="49.2126" /> 
<circle cx="38500" cy="35500" r="49.2126" /> 
<circle cx="38500" cy="31000" r="49.2126" /> 
<circle cx="49000" cy="36500" r="49.2126" /> 
<circle cx="48000" cy="36500" r="49.2126" /> 
<circle cx="49000" cy="35500" r="49.2126" /> 
<circle cx="48000" cy="35500" r="49.2126" /> 
<circle cx="49000" cy="34500" r="49.2126" /> 
<circle cx="48000" cy="34500" r="49.2126" /> 
<circle cx="49000" cy="33500" r="49.2126" /> 
<circle cx="48000" cy="33500" r="49.2126" /> 
<circle cx="30500" cy="24500" r="49.2126" /> 
<circle cx="31500" cy="24500" r="49.2126" /> 
<circle cx="30500" cy="25500" r="49.2126" /> 
<circle cx="31500" cy="25500" r="49.2126" /> 
<circle cx="30500" cy="26500" r="49.2126" /> 
<circle cx="31500" cy="26500" r="49.2126" /> 
<circle cx="30500" cy="27500" r="49.2126" /> 
<circle cx="31500" cy="27500" r="49.2126" /> 
<circle cx="30500" cy="28500" r="49.2126" /> 
<circle cx="31500" cy="28500" r="49.2126" /> 
<circle cx="30500" cy="29500" r="49.2126" /> 
<circle cx="31500" cy="29500" r="49.2126" /> 
<circle cx="30500" cy="30500" r="49.2126" /> 
<circle cx="31500" cy="30500" r="49.2126" /> 
<circle cx="30500" cy="31500" r="49.2126" /> 
<circle cx="31500" cy="31500" r="49.2126" /> 
<circle cx="30500" cy="32500" r="49.2126" /> 
<circle cx="31500" cy="32500" r="49.2126" /> 
<circle cx="30500" cy="33500" r="49.2126" /> 
<circle cx="31500" cy="33500" r="49.2126" /> 
<circle cx="30500" cy="34500" r="49.2126" /> 
<circle cx="31500" cy="34500" r="49.2126" /> 
<circle cx="30500" cy="35500" r="49.2126" /> 
<circle cx="31500" cy="35500" r="49.2126" /> 
<circle cx="30500" cy="36500" r="49.2126" /> 
<circle cx="31500" cy="36500" r="49.2126" /> 
<circle cx="30500" cy="37500" r="49.2126" /> 
<circle cx="31500" cy="37500" r="49.2126" /> 
<circle cx="30500" cy="38500" r="49.2126" /> 
<circle cx="31500" cy="38500" r="49.2126" /> 
<circle cx="30500" cy="39500" r="49.2126" /> 
<circle cx="31500" cy="39500" r="49.2126" /> 
<circle cx="30500" cy="40500" r="49.2126" /> 
<circle cx="31500" cy="40500" r="49.2126" /> 
<circle cx="30500" cy="41500" r="49.2126" /> 
<circle cx="31500" cy="41500" r="49.2126" /> 
<circle cx="30500" cy="42500" r="49.2126" /> 
<circle cx="31500" cy="42500" r="49.2126" /> 
<circle cx="30500" cy="43500" r="49.2126" /> 
<circle cx="31500" cy="43500" r="49.2126" /> 
<circle cx="29500" cy="24500" r="49.2126" /> 
<circle cx="32500" cy="24500" r="49.2126" /> 
<circle cx="29500" cy="25500" r="49.2126" /> 
<circle cx="32500" cy="25500" r="49.2126" /> 
<circle cx="29500" cy="26500" r="49.2126" /> 
<circle cx="32500" cy="26500" r="49.2126" /> 
<circle cx="29500" cy="27500" r="49.2126" /> 
<circle cx="32500" cy="27500" r="49.2126" /> 
<circle cx="29500" cy="28500" r="49.2126" /> 
<circle cx="32500" cy="28500" r="49.2126" /> 
<circle cx="29500" cy="30500" r="49.2126" /> 
<circle cx="32500" cy="30500" r="49.2126" /> 
<circle cx="29500" cy="31500" r="49.2126" /> 
<circle cx="32500" cy="33500" r="49.2126" /> 
<circle cx="29500" cy="34500" r="49.2126" /> 
<circle cx="32500" cy="34500" r="49.2126" /> 
<circle cx="29500" cy="35500" r="49.2126" /> 
<circle cx="32500" cy="35500" r="49.2126" /> 
<circle cx="29500" cy="36500" r="49.2126" /> 
<circle cx="32500" cy="36500" r="49.2126" /> 
<circle cx="29500" cy="37500" r="49.2126" /> 
</g> 
</svg>
